<?xml version="1.0" standalone="no"?>
<!DOCTYPE svg PUBLIC "-//W3C//DTD SVG 20010904//EN"
 "http://www.w3.org/TR/2001/REC-SVG-20010904/DTD/svg10.dtd">
<svg version="1.0" xmlns="http://www.w3.org/2000/svg"
 width="2400.000000pt" height="2943.000000pt" viewBox="0 0 2400.000000 2943.000000"
 preserveAspectRatio="xMidYMid meet">
<metadata>
Created by potrace 1.10, written by Peter Selinger 2001-2011
</metadata>
<g transform="translate(0.000000,2943.000000) scale(0.100000,-0.100000)"
fill="#000000" stroke="none">
<path d="M44 29343 c-10 -122 6 -6812 17 -7003 5 -85 13 -232 18 -326 6 -94
15 -191 20 -215 6 -24 11 -76 11 -115 0 -39 4 -84 10 -100 5 -16 14 -76 20
-134 18 -179 31 -273 46 -322 8 -26 14 -63 14 -83 0 -21 7 -69 16 -109 8 -39
20 -92 25 -118 6 -26 15 -71 20 -100 16 -101 37 -193 48 -221 6 -16 11 -40 11
-55 0 -15 6 -47 14 -72 16 -49 32 -113 46 -175 23 -103 43 -176 96 -350 8 -27
19 -63 24 -80 4 -16 13 -45 19 -62 6 -18 16 -48 22 -65 6 -18 15 -51 20 -73 6
-21 14 -44 18 -50 5 -5 11 -21 14 -35 3 -14 22 -70 42 -125 20 -55 39 -109 41
-120 3 -11 12 -33 19 -50 12 -28 22 -53 62 -160 19 -50 15 -40 119 -285 47
-113 111 -257 141 -320 94 -197 177 -363 209 -420 17 -30 53 -95 79 -145 27
-49 57 -103 67 -120 10 -16 21 -37 25 -45 3 -8 56 -97 117 -198 61 -101 116
-191 121 -200 15 -26 123 -191 158 -242 17 -25 58 -85 91 -134 34 -48 68 -98
76 -110 108 -156 453 -598 610 -780 47 -54 101 -118 121 -142 20 -23 58 -66
86 -96 27 -29 106 -114 175 -188 118 -127 528 -535 614 -609 21 -19 82 -74
134 -121 93 -85 268 -236 364 -315 27 -22 54 -45 60 -50 6 -6 43 -35 81 -65
39 -30 79 -63 90 -73 28 -25 424 -322 510 -382 39 -27 97 -68 130 -91 92 -66
326 -224 330 -224 2 0 39 -24 82 -53 43 -29 122 -80 176 -112 54 -33 110 -68
125 -77 15 -10 34 -21 42 -25 8 -4 55 -31 105 -61 49 -30 98 -58 110 -63 11
-6 29 -15 40 -22 70 -42 147 -86 197 -112 131 -68 446 -225 453 -225 4 0 18
-9 32 -20 30 -23 58 -25 93 -6 14 8 45 24 70 36 220 109 318 158 395 200 50
26 113 60 140 75 28 14 64 34 80 45 17 11 39 24 51 29 11 5 50 27 85 48 35 22
71 42 79 46 8 4 29 16 45 27 17 11 39 24 50 30 11 6 32 18 47 28 15 9 60 37
100 61 182 110 720 475 823 559 6 4 38 27 72 50 34 23 110 80 170 127 59 48
158 125 218 173 61 47 126 100 146 116 19 17 57 49 84 71 26 22 55 47 63 55 9
8 28 25 44 36 30 23 107 90 293 259 268 243 649 626 850 854 55 63 105 119
112 126 13 13 66 75 128 150 22 27 45 53 51 59 54 55 445 562 530 686 17 25
55 80 85 123 30 43 59 85 64 95 6 9 43 66 83 125 39 60 72 110 72 112 0 2 19
32 43 67 60 91 66 101 74 118 4 8 18 33 32 55 35 54 41 66 75 127 51 93 57
102 87 153 16 28 37 64 45 80 8 17 18 37 23 45 5 8 12 22 16 30 3 8 21 42 40
75 18 33 43 80 55 105 12 25 25 52 30 60 12 19 52 102 102 210 22 47 44 92 49
100 5 8 12 22 15 30 7 20 37 87 93 213 17 37 31 71 31 76 0 5 6 22 14 38 18
37 40 88 61 143 9 25 22 54 28 65 5 11 14 33 18 50 4 16 17 55 29 85 12 30 25
66 30 80 5 14 18 50 30 80 12 30 25 69 30 85 5 17 14 46 21 65 6 19 17 51 24
70 7 19 20 62 30 95 9 33 23 76 30 95 12 34 28 89 61 208 9 31 20 71 26 87 5
17 14 51 18 77 5 26 13 56 19 67 6 11 11 30 11 42 0 11 6 42 14 68 19 59 37
134 47 191 7 42 13 70 41 180 6 25 14 70 18 100 4 30 12 75 18 100 18 73 33
160 42 240 5 41 14 91 20 110 5 19 10 57 10 85 1 27 7 77 15 110 8 33 15 82
15 108 0 26 6 92 14 145 50 333 56 566 64 2292 6 1347 9 1579 21 1600 13 21
16 193 22 1130 4 608 8 1446 8 1863 l1 757 -25 10 c-22 8 -31 30 -26 63 0 4
-24 7 -55 7 -30 0 -53 -4 -50 -9 3 -5 -4 -11 -17 -15 -30 -8 -6268 -8 -6335 1
-34 4 -49 9 -40 14 7 5 -1522 9 -3399 9 l-3411 0 -8 -87z m6261 -2 c231 -5
539 -16 685 -23 266 -13 2789 -18 5315 -10 567 2 1036 3 1044 3 12 -1 13 -34
8 -208 -4 -115 -12 -945 -17 -1846 l-10 -1638 -62 -77 c-35 -42 -67 -82 -73
-88 -18 -19 -108 -123 -245 -284 -72 -85 -155 -182 -183 -214 -29 -32 -61 -71
-72 -86 -11 -15 -27 -34 -35 -42 -8 -8 -33 -37 -55 -64 -22 -26 -67 -80 -100
-119 -74 -86 -299 -353 -340 -403 -30 -38 -140 -168 -179 -212 -36 -41 -369
-439 -401 -480 -70 -87 -118 -147 -145 -180 -16 -19 -37 -46 -48 -59 -25 -32
-54 -24 -117 37 -61 57 -188 191 -270 286 -33 37 -65 73 -70 80 -10 10 -31 33
-190 211 -38 43 -75 83 -80 89 -6 6 -55 63 -110 126 -55 63 -103 117 -106 120
-3 3 -37 41 -75 85 -38 44 -85 98 -105 120 -39 43 -103 115 -214 240 -38 43
-75 83 -80 89 -9 9 -168 187 -200 222 -50 57 -277 297 -345 364 -113 114 -168
161 -229 199 -43 26 -61 31 -115 31 -44 0 -67 -5 -76 -15 -7 -8 -18 -15 -24
-15 -34 0 -447 -409 -691 -684 -10 -11 -211 -232 -230 -252 -5 -6 -33 -36 -60
-65 -78 -83 -180 -194 -290 -314 -55 -59 -107 -116 -115 -124 -9 -9 -61 -65
-115 -126 -148 -163 -471 -485 -487 -485 -8 0 -24 20 -36 45 -12 25 -29 48
-38 52 -38 14 -84 -44 -84 -108 0 -40 -11 -69 -27 -69 -20 0 -80 60 -883 894
-625 649 -1008 1028 -1236 1223 -59 51 -103 63 -142 37 -15 -9 -131 -121 -258
-248 -255 -256 -336 -340 -674 -706 -74 -80 -155 -167 -180 -195 -80 -86 -172
-188 -250 -274 -41 -46 -80 -89 -85 -95 -6 -6 -37 -40 -69 -76 -33 -36 -75
-83 -95 -105 -20 -22 -95 -105 -166 -185 -71 -80 -134 -150 -140 -156 -12 -13
-111 -126 -178 -203 -106 -122 -109 -124 -127 -104 -9 10 -77 83 -151 163 -73
80 -138 150 -144 156 -5 6 -68 73 -140 150 -125 134 -273 291 -325 345 -86 90
-172 182 -290 309 -74 80 -153 164 -175 186 -22 23 -63 66 -90 95 -28 30 -124
133 -215 229 -90 96 -169 180 -175 186 -5 6 -82 87 -170 180 -88 93 -198 209
-245 259 -47 49 -88 92 -92 95 -5 4 -13 3491 -8 3744 0 12 5672 0 6195 -13z
m2903 -3898 c87 -59 348 -334 762 -798 73 -82 148 -165 166 -183 18 -18 65
-72 105 -120 40 -48 98 -114 129 -147 30 -33 98 -109 150 -169 52 -60 123
-139 156 -175 34 -36 94 -104 134 -151 218 -255 379 -418 447 -451 35 -16 62
-22 102 -20 84 4 120 33 278 222 140 167 232 277 308 369 186 225 481 577 505
601 14 14 72 83 130 153 93 113 335 398 383 451 10 11 50 58 89 105 99 118
160 180 170 174 5 -3 15 -1 22 5 11 9 15 0 18 -51 7 -87 2 -2905 -5 -2948 -3
-19 -10 -120 -16 -225 -5 -104 -15 -208 -20 -230 -6 -22 -11 -86 -11 -143 0
-67 -5 -113 -14 -130 -7 -15 -16 -70 -20 -122 -4 -52 -11 -99 -17 -104 -5 -6
-9 -35 -9 -65 0 -31 -7 -81 -15 -111 -8 -30 -15 -76 -15 -101 0 -26 -7 -63
-15 -82 -8 -20 -15 -60 -15 -89 -1 -29 -7 -64 -15 -78 -8 -14 -14 -46 -15 -72
0 -26 -6 -62 -14 -80 -14 -34 -32 -114 -45 -201 -4 -26 -13 -53 -19 -59 -7 -7
-12 -27 -12 -44 0 -18 -5 -45 -11 -61 -14 -35 -38 -132 -48 -196 -4 -26 -13
-53 -19 -59 -7 -7 -12 -23 -12 -37 -1 -15 -7 -37 -15 -51 -8 -14 -14 -39 -15
-56 0 -16 -7 -39 -15 -50 -8 -10 -15 -33 -15 -51 0 -17 -7 -38 -15 -47 -8 -8
-15 -30 -15 -50 0 -19 -7 -41 -15 -50 -8 -8 -15 -22 -15 -31 0 -9 -5 -26 -12
-38 -6 -12 -15 -38 -19 -57 -4 -19 -17 -60 -29 -90 -13 -30 -25 -72 -27 -93
-3 -21 -11 -41 -19 -44 -8 -3 -14 -13 -14 -22 0 -9 -7 -29 -15 -45 -8 -15 -15
-34 -15 -42 0 -14 -20 -66 -46 -117 -8 -16 -14 -35 -14 -42 0 -7 -6 -26 -14
-42 -35 -70 -71 -153 -92 -212 -12 -34 -27 -68 -33 -74 -6 -6 -11 -21 -11 -33
0 -12 -7 -27 -15 -34 -8 -7 -15 -18 -15 -25 0 -6 -11 -32 -25 -56 -14 -24 -27
-51 -30 -59 -3 -8 -13 -28 -21 -43 -7 -16 -14 -34 -14 -42 0 -7 -7 -18 -15
-25 -8 -7 -15 -21 -15 -31 0 -9 -7 -24 -15 -33 -8 -8 -15 -21 -16 -28 0 -7
-18 -44 -40 -83 -21 -38 -42 -77 -45 -85 -3 -8 -8 -19 -10 -25 -2 -5 -13 -23
-24 -40 -11 -16 -23 -37 -26 -45 -16 -37 -47 -98 -65 -125 -10 -16 -31 -52
-45 -80 -39 -76 -51 -96 -63 -108 -6 -6 -11 -19 -11 -29 0 -10 -5 -18 -10 -18
-6 0 -15 -11 -20 -25 -5 -14 -27 -51 -48 -83 -21 -32 -41 -64 -45 -72 -4 -8
-16 -28 -27 -45 -11 -16 -23 -37 -27 -45 -3 -8 -19 -31 -35 -51 -15 -20 -28
-40 -28 -44 0 -4 -13 -24 -30 -45 -16 -21 -30 -44 -30 -52 0 -7 -8 -21 -17
-30 -24 -22 -43 -46 -43 -53 0 -3 -13 -24 -30 -47 -16 -22 -30 -45 -30 -49 0
-4 -13 -23 -30 -41 -16 -18 -30 -36 -30 -41 0 -5 -20 -35 -45 -67 -25 -32 -45
-63 -45 -68 0 -6 -4 -12 -10 -14 -5 -1 -41 -46 -79 -98 -39 -52 -74 -99 -78
-105 -5 -5 -24 -30 -43 -55 -69 -90 -186 -237 -240 -300 -31 -36 -66 -78 -79
-95 -12 -16 -37 -46 -54 -65 -36 -39 -170 -191 -202 -229 -111 -131 -685 -703
-849 -846 -32 -27 -70 -61 -85 -75 -117 -106 -188 -168 -215 -188 -17 -13 -49
-40 -71 -60 -22 -21 -69 -60 -105 -87 -36 -26 -69 -53 -75 -59 -5 -7 -38 -33
-72 -59 -34 -26 -68 -53 -75 -60 -7 -7 -89 -70 -183 -140 -299 -222 -378 -279
-475 -342 -65 -42 -143 -97 -175 -123 -5 -4 -17 -11 -25 -15 -23 -12 -48 -27
-140 -88 -72 -47 -142 -91 -228 -144 -78 -48 -100 -62 -117 -73 -11 -6 -29
-17 -40 -22 -11 -6 -33 -19 -50 -30 -16 -11 -43 -26 -60 -34 -16 -8 -52 -29
-80 -45 -27 -17 -59 -35 -70 -41 -11 -6 -60 -33 -110 -60 -49 -28 -112 -61
-140 -75 -27 -14 -57 -30 -65 -35 -8 -5 -86 -43 -173 -86 -131 -63 -162 -75
-180 -67 -12 6 -44 20 -72 33 -53 24 -267 129 -300 147 -11 7 -27 14 -35 17
-8 4 -28 15 -45 26 -16 11 -37 22 -45 26 -8 3 -22 10 -30 15 -8 5 -24 13 -36
18 -19 8 -134 76 -174 101 -8 6 -25 14 -38 20 -12 5 -48 26 -80 47 -31 20 -75
46 -97 58 -22 11 -60 33 -85 49 -25 16 -74 48 -110 71 -36 23 -69 44 -75 46
-5 2 -43 27 -83 54 -40 28 -85 56 -100 64 -15 8 -29 17 -32 20 -3 3 -48 35
-100 70 -52 36 -129 87 -170 115 -41 28 -97 68 -125 89 -27 21 -125 93 -217
161 -186 138 -303 229 -418 326 -43 36 -93 76 -111 90 -18 14 -40 32 -49 40
-9 8 -43 38 -75 65 -60 50 -190 166 -359 319 -127 114 -540 528 -671 671 -91
100 -150 165 -260 289 -5 6 -35 41 -65 76 -30 36 -57 67 -60 70 -3 3 -30 36
-59 74 -30 37 -62 78 -72 90 -107 128 -268 339 -353 461 -27 39 -52 72 -55 75
-6 5 -119 170 -136 198 -6 9 -53 82 -106 162 -53 80 -109 167 -125 193 -16 27
-37 61 -46 75 -10 15 -21 34 -25 42 -4 8 -33 58 -65 111 -32 53 -58 99 -58
103 0 3 -19 36 -42 73 -79 129 -301 569 -388 768 -26 59 -53 119 -80 178 -11
24 -20 49 -20 56 0 7 -7 25 -14 39 -8 15 -22 45 -31 67 -18 43 -32 77 -59 138
-9 21 -16 48 -16 60 0 13 -5 28 -12 35 -12 12 -34 68 -48 121 -5 18 -13 38
-19 44 -6 6 -11 20 -11 32 0 11 -6 29 -14 40 -7 11 -16 34 -19 50 -2 17 -18
68 -35 115 -16 47 -35 105 -41 130 -7 25 -19 58 -27 73 -8 16 -14 41 -14 56 0
15 -7 36 -15 47 -8 10 -15 31 -15 46 0 15 -6 42 -14 60 -8 18 -24 71 -35 118
-31 132 -42 173 -53 205 -6 17 -14 53 -18 81 -4 28 -13 61 -19 72 -6 11 -11
36 -11 54 0 18 -6 53 -14 78 -21 65 -46 190 -46 226 0 17 -7 48 -15 67 -8 20
-15 58 -15 84 0 26 -6 60 -14 75 -8 15 -15 60 -17 100 -2 40 -9 87 -16 105 -7
18 -13 56 -13 85 0 29 -7 84 -15 123 -8 38 -15 91 -15 117 0 25 -7 82 -15 125
-8 43 -15 114 -15 158 0 44 -5 98 -11 120 -22 85 -31 561 -35 1964 -5 1299 -4
1453 10 1442 8 -7 19 -10 24 -7 10 6 252 -245 672 -698 36 -38 85 -91 110
-116 74 -75 507 -535 641 -680 68 -74 149 -160 179 -191 30 -31 80 -83 110
-116 237 -260 356 -373 391 -373 5 0 9 -4 9 -10 0 -5 14 -16 31 -23 29 -12 37
-10 99 21 47 23 88 55 136 105 99 103 287 316 300 338 6 11 36 43 65 72 30 29
126 133 214 232 88 99 193 216 234 260 41 44 99 108 130 141 104 115 126 138
320 349 106 115 207 224 225 241 17 17 143 144 280 282 180 182 256 252 272
252 52 0 91 -30 289 -217 111 -106 535 -524 535 -528 0 -2 53 -57 118 -123
236 -242 602 -620 716 -742 241 -255 409 -413 472 -443 32 -16 67 -33 77 -38
20 -11 49 1 69 29 25 34 66 52 120 52 38 0 68 8 106 28 81 41 268 220 527 506
50 55 149 163 220 241 72 77 171 185 220 239 50 54 125 135 168 180 43 44 95
101 115 126 20 25 43 52 52 61 8 9 67 71 130 139 63 68 121 128 128 134 7 6
40 40 75 75 131 135 221 217 275 255 52 35 61 38 107 32 34 -4 66 -17 103 -43z"/>
<path d="M3014 29086 c-17 -8 -51 -17 -75 -21 -24 -4 -54 -13 -66 -21 -12 -8
-31 -14 -42 -14 -11 0 -32 -7 -48 -15 -15 -7 -48 -23 -73 -35 -48 -23 -62 -30
-128 -72 -24 -16 -45 -28 -48 -28 -17 0 -234 -218 -234 -235 0 -3 -11 -21 -24
-38 -14 -18 -29 -43 -35 -57 -6 -14 -15 -32 -20 -40 -32 -54 -61 -155 -61
-213 0 -40 -17 -62 -37 -46 -7 7 -13 18 -13 25 0 30 -87 153 -159 225 -89 88
-199 173 -258 198 -11 6 -24 15 -28 20 -3 6 -14 11 -24 11 -9 0 -22 5 -29 12
-12 12 -71 36 -112 45 -14 3 -34 12 -45 19 -11 8 -29 14 -40 14 -11 0 -40 6
-65 14 -63 20 -159 37 -267 46 -99 9 -133 5 -133 -14 0 -13 40 -31 140 -64 36
-11 90 -30 120 -42 30 -12 64 -24 75 -27 27 -8 66 -44 59 -55 -3 -5 -33 -7
-67 -6 -50 3 -62 0 -65 -14 -2 -11 6 -18 30 -23 107 -22 281 -100 286 -129 3
-13 -7 -16 -62 -16 -49 0 -66 -4 -66 -14 0 -12 71 -46 97 -46 7 0 29 -7 50
-16 56 -24 75 -32 101 -39 35 -10 21 -30 -24 -33 -82 -6 -81 -27 3 -51 69 -20
174 -73 170 -85 -2 -6 -23 -13 -48 -16 -54 -6 -53 -21 4 -38 23 -7 56 -19 72
-26 17 -8 38 -17 48 -20 11 -3 17 -13 15 -23 -3 -15 -12 -18 -53 -15 -155 8
-332 2 -374 -13 -24 -8 -56 -15 -70 -15 -15 0 -36 -7 -47 -15 -10 -8 -27 -15
-36 -15 -10 0 -34 -7 -55 -16 -21 -9 -54 -24 -73 -32 -19 -8 -42 -19 -50 -23
-8 -5 -25 -13 -37 -19 -58 -25 -237 -147 -303 -207 -14 -12 -38 -34 -55 -49
-93 -83 -125 -116 -125 -129 0 -19 44 -20 62 -1 8 7 39 26 69 40 30 15 61 30
69 35 161 87 201 92 153 20 -14 -22 -30 -39 -34 -39 -5 0 -9 -11 -9 -25 0 -33
9 -32 66 13 61 46 75 55 144 88 30 15 58 31 61 36 3 5 20 12 37 17 27 8 32 7
32 -8 0 -9 -11 -32 -24 -50 -23 -30 -25 -61 -6 -61 5 0 21 10 37 23 34 27 52
38 123 74 30 15 57 31 60 35 3 4 18 11 33 17 23 9 27 8 27 -6 0 -9 -12 -32
-26 -50 -19 -25 -23 -38 -15 -46 10 -10 22 -7 74 23 9 5 25 15 35 20 9 6 28
15 42 20 29 12 37 16 70 35 22 12 27 12 40 0 12 -13 10 -19 -20 -50 -39 -40
-33 -58 11 -32 66 38 95 9 31 -31 -88 -55 -227 -214 -281 -322 -12 -25 -26
-52 -30 -60 -8 -14 -22 -48 -55 -137 -38 -103 -69 -360 -52 -427 12 -48 46
-26 46 29 0 13 5 27 10 30 6 3 10 15 10 27 0 11 6 34 14 51 7 18 21 58 31 90
24 81 45 77 45 -8 0 -48 4 -65 13 -65 20 0 47 33 47 58 0 12 7 38 16 59 9 21
23 52 30 68 7 17 20 46 28 67 9 20 16 41 16 48 0 6 8 10 18 8 14 -3 17 -13 14
-65 -2 -40 1 -64 9 -69 15 -9 49 30 49 57 0 10 7 35 16 56 9 21 23 52 30 68 7
17 20 46 28 67 9 20 16 41 16 47 0 15 30 14 32 -1 0 -7 1 -33 2 -57 1 -24 6
-46 11 -47 10 -4 16 7 79 149 19 42 39 77 45 77 5 0 12 9 16 19 3 10 14 21 25
24 19 5 19 4 0 -34 -25 -48 -25 -54 0 -89 14 -20 31 -30 53 -32 31 -3 32 -5
37 -53 6 -59 -5 -743 -14 -930 -7 -124 -10 -265 -21 -1065 -6 -447 -10 -587
-19 -625 -6 -23 -3 -37 14 -58 21 -26 25 -27 117 -27 71 0 101 4 113 15 14 13
15 58 12 452 -2 241 -6 573 -9 738 -2 165 -3 314 -2 330 1 17 1 44 0 60 -5
116 -8 361 -10 738 l-1 437 -23 0 c-31 0 -67 35 -67 65 0 33 20 75 37 75 7 0
13 7 13 15 0 17 -16 20 -25 5 -3 -5 -17 -10 -30 -10 -31 0 -38 -13 -24 -43 9
-19 7 -31 -6 -57 -16 -31 -19 -32 -61 -27 -25 2 -54 13 -65 23 -20 18 -20 18
11 42 16 13 30 32 30 43 0 18 10 23 38 20 10 -2 11 2 4 15 -7 13 -3 29 19 64
16 26 29 50 29 53 0 12 34 47 46 47 28 0 69 -101 53 -131 -8 -16 -6 -21 14
-28 13 -5 27 -17 31 -26 10 -26 7 -104 -4 -125 -8 -15 -6 -21 9 -30 26 -14 51
-3 51 24 1 64 35 92 47 36 3 -17 10 -33 14 -36 5 -3 9 -19 9 -35 0 -17 5 -40
12 -52 12 -23 24 -81 34 -175 11 -93 43 -81 46 17 1 34 5 64 9 67 14 8 49 -35
49 -61 0 -13 6 -44 14 -67 8 -24 17 -68 20 -98 16 -133 21 -155 37 -158 12 -2
18 7 22 30 8 51 25 88 40 88 16 0 37 -108 46 -241 4 -49 13 -94 20 -103 14
-16 41 -22 41 -8 1 4 6 41 13 82 16 105 16 425 -1 442 -6 6 -12 23 -12 37 0
26 -22 101 -45 156 -45 105 -79 161 -142 233 -18 20 -33 40 -33 45 0 4 -7 7
-15 7 -8 0 -15 7 -15 15 0 20 -26 19 -34 -1 -10 -26 6 -96 31 -132 12 -19 23
-39 23 -44 0 -5 16 -42 35 -82 47 -98 46 -123 -5 -96 -22 12 -80 95 -80 115 0
8 -15 30 -34 48 -18 19 -39 44 -46 56 -6 13 -17 20 -25 18 -7 -3 -17 5 -23 18
-6 13 -19 26 -30 29 -10 4 -31 32 -47 63 -15 31 -46 77 -70 102 -28 31 -45 59
-49 85 -6 29 -10 36 -17 25 -5 -8 -9 -28 -9 -44 0 -24 -7 -34 -32 -48 -18 -10
-41 -31 -50 -48 -25 -43 -41 -28 -36 32 4 42 3 46 -8 31 -7 -9 -14 -25 -14
-36 0 -31 -53 -136 -72 -142 -10 -3 -18 -10 -18 -15 0 -5 -6 -9 -14 -9 -7 0
-19 -7 -26 -15 -18 -22 -30 -9 -30 36 0 50 -17 51 -25 2 -3 -21 -10 -45 -16
-53 -5 -8 -15 -26 -22 -40 -13 -28 -46 -59 -62 -60 -6 0 -16 -9 -23 -20 -7
-12 -17 -18 -22 -15 -13 8 -13 85 -1 85 5 0 12 15 16 33 3 17 10 41 14 52 36
89 51 134 51 153 0 12 7 25 15 28 8 4 15 11 15 16 0 6 8 17 18 24 14 11 9 12
-37 7 -49 -6 -54 -4 -48 11 4 10 7 22 7 27 0 6 12 21 26 34 33 30 22 32 -34 5
-49 -24 -58 -25 -65 -6 -7 17 -57 27 -78 15 -41 -21 -26 27 20 67 46 41 50 44
64 44 8 0 20 7 27 15 7 8 24 15 39 15 20 0 31 9 46 36 21 38 48 54 96 54 33 0
37 13 11 32 -21 16 -44 66 -37 79 4 5 17 9 31 9 36 0 29 18 -11 26 -19 3 -40
16 -49 28 -8 13 -28 36 -45 51 -34 33 -32 45 10 45 44 0 35 17 -13 25 -51 8
-74 22 -121 72 -41 43 -35 53 29 53 25 0 47 -6 54 -15 7 -8 19 -15 27 -15 40
0 191 -119 178 -140 -5 -9 -10 -9 -18 -1 -6 6 -31 10 -57 10 -25 -1 -36 -3
-25 -5 26 -6 106 -45 123 -61 7 -7 28 -13 46 -13 19 0 39 -7 46 -15 7 -8 19
-15 26 -15 8 0 17 -12 20 -26 l7 -27 14 27 c7 14 17 26 22 26 4 0 17 8 29 18
49 40 67 52 79 52 7 0 13 5 13 10 0 15 -27 12 -44 -5 -8 -8 -18 -15 -22 -15
-4 0 -15 -7 -25 -16 -9 -8 -27 -14 -39 -12 -20 3 -12 13 57 84 86 86 137 122
166 116 41 -8 -8 -100 -63 -117 -28 -9 -15 -25 21 -25 26 0 29 -3 27 -28 -2
-29 7 -52 22 -52 5 0 27 18 50 40 23 22 54 47 71 57 43 25 37 41 -18 45 -25 2
-48 8 -50 13 -3 11 113 83 162 101 40 14 34 28 -12 32 -64 5 -70 10 -42 35 13
12 56 38 94 57 78 39 117 68 109 82 -3 5 -32 6 -65 2 -54 -6 -59 -5 -59 12 0
13 16 28 45 44 25 14 45 28 45 31 0 4 8 9 18 13 9 3 35 17 57 30 22 14 48 25
57 26 17 0 35 36 24 48 -4 3 -29 0 -57 -7 -60 -16 -80 -5 -47 26 33 29 203
131 230 138 13 4 37 17 54 30 24 21 27 26 14 35 -20 13 -49 12 -86 -4z m-418
-363 c-11 -43 -40 -78 -70 -81 -15 -2 -30 -10 -33 -18 -3 -8 -19 -14 -37 -14
-18 0 -37 -5 -44 -12 -6 -6 -14 -9 -17 -6 -5 4 29 39 104 108 31 29 66 49 85
49 15 1 17 -4 12 -26z m-904 -153 c40 -22 89 -54 108 -71 l35 -31 -30 6 c-16
4 -50 9 -75 12 -80 9 -90 14 -135 61 -25 26 -45 50 -45 55 0 21 74 5 142 -32z
m858 26 c0 -8 -9 -17 -19 -21 -11 -3 -22 -19 -26 -36 -4 -16 -16 -34 -28 -41
-12 -6 -26 -17 -30 -24 -4 -8 -15 -14 -24 -14 -9 0 -26 -8 -37 -19 -12 -10
-36 -21 -53 -24 -27 -5 -33 -3 -33 12 0 10 9 26 20 36 11 10 22 26 25 36 8 25
90 79 121 79 13 0 27 7 30 15 8 19 54 20 54 1z m-800 -631 c0 -9 -9 -15 -25
-15 -16 0 -25 -6 -25 -15 0 -8 -5 -15 -11 -15 -11 0 -75 -46 -116 -85 -17 -15
-36 -20 -85 -21 -35 -1 -75 -4 -90 -9 -16 -4 -28 -3 -28 2 0 13 61 74 85 84
20 9 32 15 70 37 11 7 27 15 35 18 8 3 24 10 35 14 25 11 48 15 108 18 36 1
47 -1 47 -13z m-295 -35 c-3 -5 -10 -10 -14 -10 -5 0 -40 -32 -79 -71 -64 -65
-73 -71 -99 -64 -15 5 -38 7 -50 6 -47 -5 -21 27 50 64 39 20 77 42 82 49 18
22 123 47 110 26z m275 -488 c0 -15 -7 -36 -15 -46 -8 -11 -15 -34 -15 -50 0
-17 -9 -44 -20 -61 -11 -16 -20 -38 -20 -48 0 -10 -8 -20 -17 -24 -10 -3 -33
-17 -50 -30 -29 -21 -33 -22 -33 -7 0 53 49 157 109 234 15 19 30 43 34 53 10
25 27 11 27 -21z m490 -1130 c0 -14 -11 -21 -26 -15 -8 3 -11 9 -8 14 7 11 34
12 34 1z m-5 -43 c10 -15 -1 -23 -20 -15 -9 3 -13 10 -10 16 8 13 22 13 30 -1z
m9 -228 c7 -11 -22 -23 -35 -15 -5 3 -7 10 -4 15 8 12 32 12 39 0z m11 -150
c3 -5 1 -13 -5 -16 -8 -5 -8 -11 -1 -19 14 -16 4 -26 -25 -26 -25 0 -40 15
-24 25 6 4 8 11 5 16 -4 5 -3 14 0 19 8 13 42 13 50 1z m-14 -169 c4 -20 2
-33 -6 -36 -20 -7 -32 8 -30 39 3 38 3 37 17 33 7 -3 15 -19 19 -36z m1 -129
c-2 -17 2 -34 8 -38 18 -11 1 -25 -31 -25 -31 0 -35 9 -18 41 7 15 7 24 -1 34
-8 10 -8 14 2 18 29 12 43 2 40 -30z m12 -148 c0 -26 -4 -30 -31 -33 -26 -3
-31 1 -36 25 -7 37 -1 45 36 41 27 -3 31 -7 31 -33z m-1 -142 c7 -37 2 -43
-38 -43 -32 0 -35 3 -33 28 2 38 6 42 37 42 23 0 30 -5 34 -27z m-8 -101 c6
-4 10 -20 10 -37 0 -28 -3 -30 -35 -30 -32 0 -35 3 -36 30 -1 17 0 33 3 38 5
9 45 9 58 -1z m11 -179 c4 -32 3 -33 -35 -33 -39 0 -61 13 -42 24 5 3 7 15 4
27 -5 18 -2 20 32 17 34 -3 38 -6 41 -35z m-5 -110 c8 -20 6 -30 -5 -42 -22
-21 -72 -3 -68 24 6 38 12 45 37 45 18 0 28 -7 36 -27z m4 -155 c-2 -31 -5
-33 -41 -33 -35 0 -38 2 -37 28 1 15 1 29 2 32 1 3 18 5 40 5 38 0 39 -1 36
-32z"/>
<path d="M12045 29066 c-33 -7 -70 -17 -82 -24 -12 -7 -32 -12 -45 -12 -13 0
-32 -7 -42 -15 -11 -8 -27 -15 -36 -15 -21 0 -171 -77 -248 -126 -54 -36 -262
-237 -262 -255 0 -4 -13 -27 -28 -51 -15 -24 -35 -59 -44 -78 -8 -19 -22 -51
-31 -70 -9 -19 -19 -60 -23 -90 -3 -30 -10 -63 -16 -72 -13 -27 -37 -22 -44
10 -13 51 -94 160 -189 251 -53 50 -101 91 -106 91 -6 0 -28 12 -48 28 -77 58
-214 124 -316 152 -16 5 -43 13 -60 18 -76 25 -180 42 -297 48 -126 7 -128 7
-128 -14 0 -15 8 -23 28 -27 54 -12 137 -38 146 -46 6 -5 19 -9 29 -9 10 0 31
-6 45 -14 15 -8 50 -23 77 -33 71 -27 67 -48 -10 -48 -57 0 -60 -1 -60 -25 0
-23 5 -26 54 -32 29 -3 58 -11 64 -17 6 -6 18 -11 25 -11 8 0 47 -16 87 -35
61 -29 85 -49 85 -70 0 -2 -28 -5 -62 -7 -47 -2 -64 -7 -66 -18 -2 -12 17 -20
75 -35 43 -10 83 -22 88 -26 6 -3 21 -10 35 -14 28 -8 60 -33 60 -47 0 -4 -17
-8 -39 -8 -39 0 -78 -26 -50 -33 47 -13 136 -42 149 -49 8 -4 27 -12 43 -18
17 -6 27 -17 27 -29 0 -16 -8 -20 -37 -23 -44 -4 -54 -31 -13 -36 76 -10 159
-54 160 -84 0 -24 -49 -24 -93 -1 -83 43 -390 0 -582 -82 -71 -31 -143 -67
-190 -95 -27 -16 -60 -34 -72 -40 -13 -5 -23 -14 -23 -20 0 -5 -4 -10 -10 -10
-9 0 -85 -55 -114 -82 -8 -7 -44 -40 -82 -73 -84 -75 -134 -125 -134 -137 0
-21 31 -17 71 10 24 16 80 46 124 67 44 20 87 41 95 46 49 29 90 34 90 11 0
-5 -11 -22 -25 -38 -40 -46 -45 -53 -45 -64 0 -19 33 -10 68 18 40 30 105 70
172 103 25 13 57 31 72 42 14 11 31 16 37 13 13 -8 15 -33 4 -38 -14 -6 -53
-67 -53 -83 0 -23 18 -18 71 20 27 19 53 35 58 35 5 0 14 7 21 15 7 8 19 15
26 15 8 0 36 15 63 34 27 19 52 32 55 29 12 -12 6 -35 -19 -67 -14 -18 -25
-38 -25 -44 0 -14 36 -16 44 -3 4 5 53 33 111 61 129 65 166 61 93 -8 -16 -15
-25 -52 -14 -52 3 0 21 9 40 21 33 19 36 20 43 4 6 -18 3 -21 -48 -55 -68 -45
-194 -192 -239 -278 -12 -23 -26 -45 -31 -48 -5 -3 -9 -13 -9 -23 0 -9 -5 -22
-12 -29 -20 -20 -69 -169 -92 -282 -22 -112 -29 -275 -12 -289 21 -17 38 13
71 124 10 33 24 74 31 92 8 17 14 40 14 51 0 16 17 32 36 32 2 0 4 -24 4 -54
0 -35 5 -58 15 -66 16 -13 35 -6 35 14 0 21 36 129 59 175 11 23 23 55 26 71
4 17 10 30 15 30 5 0 15 3 24 6 13 5 15 -3 9 -61 -6 -65 -5 -67 16 -63 18 2
27 16 42 63 11 33 26 74 34 90 32 70 45 104 45 118 0 16 26 30 41 22 5 -3 6
-26 2 -51 -6 -44 -5 -46 18 -42 14 2 25 11 27 23 2 11 17 48 33 83 16 34 29
65 29 68 0 3 14 17 30 31 17 13 30 32 30 40 0 8 5 13 12 11 7 -3 12 -15 13
-29 0 -36 18 -36 36 1 8 18 23 37 32 42 9 5 17 16 17 25 0 11 54 113 76 141
10 14 48 -16 64 -51 24 -50 25 -65 3 -89 -15 -17 -15 -18 14 -18 30 0 30 0 37
-71 3 -39 4 -75 1 -80 -4 -5 -24 -9 -46 -9 -41 0 -78 27 -79 58 0 21 -14 13
-32 -18 -14 -24 -24 -30 -50 -30 -18 0 -42 7 -52 15 -25 19 -46 19 -46 1 0
-17 35 -40 73 -50 l28 -7 -6 -422 c-5 -395 -15 -905 -21 -1042 -8 -194 -12
-410 -15 -808 l-4 -447 33 -20 c46 -28 157 -28 191 0 l23 20 -7 1083 c-9 1211
-12 1462 -19 1560 -5 74 -2 79 53 81 24 1 26 5 29 54 2 28 8 52 13 52 19 0 48
-44 49 -72 0 -15 5 -39 11 -55 14 -35 27 -95 42 -195 6 -43 14 -78 18 -78 13
0 27 32 34 82 9 57 28 79 44 49 6 -11 11 -33 11 -50 0 -16 5 -33 10 -36 6 -3
10 -26 10 -49 0 -24 7 -63 16 -87 9 -26 13 -57 9 -77 -7 -36 1 -72 15 -72 13
0 37 49 45 93 8 44 32 49 40 10 4 -16 9 -37 11 -48 6 -20 18 -118 30 -228 6
-54 23 -81 41 -63 16 16 26 119 30 306 3 165 1 214 -12 252 -8 26 -15 54 -15
62 0 15 -19 66 -46 119 -8 16 -14 32 -14 37 0 44 -193 281 -213 261 -13 -13 8
-109 34 -161 65 -129 87 -179 93 -207 7 -29 5 -32 -11 -26 -31 11 -42 24 -99
117 -35 56 -86 120 -133 166 -45 44 -88 99 -106 132 -17 32 -33 58 -37 58 -4
0 -24 14 -44 32 -36 32 -37 32 -53 12 -9 -11 -24 -23 -33 -26 -9 -4 -26 -25
-37 -47 -26 -50 -41 -60 -41 -27 0 61 -26 75 -36 19 -10 -56 -52 -123 -71
-116 -10 4 -25 -5 -44 -28 -29 -36 -30 -35 -44 26 -7 27 -8 28 -15 10 -5 -11
-9 -32 -9 -46 -1 -14 -10 -36 -21 -49 -11 -13 -20 -27 -20 -32 0 -4 -8 -8 -17
-8 -10 0 -31 -18 -47 -40 -32 -44 -46 -43 -46 1 0 16 -4 29 -9 29 -10 0 -21
-24 -21 -46 0 -7 -10 -36 -22 -64 -16 -37 -31 -55 -60 -70 l-38 -20 0 38 c0
20 11 57 23 82 34 68 109 180 117 175 4 -3 11 -24 15 -47 6 -35 8 -39 15 -23
5 11 9 32 9 46 1 15 7 32 15 38 8 6 16 26 19 44 7 52 54 168 74 182 17 13 17
14 0 20 -9 4 -28 4 -42 1 -21 -5 -25 -3 -25 17 0 12 7 33 16 45 13 19 13 22 0
22 -8 0 -18 -4 -21 -10 -9 -14 -47 -12 -69 5 -13 10 -32 12 -62 8 -49 -6 -57
6 -26 42 21 24 109 85 122 85 22 0 90 36 90 47 0 15 42 38 88 48 39 8 40 14 6
50 -16 18 -24 36 -22 53 3 25 6 27 48 25 40 -2 42 -1 15 6 -58 17 -113 51
-133 83 -25 39 -21 48 24 48 46 0 43 16 -5 24 -21 3 -44 13 -51 21 -7 8 -20
15 -30 15 -10 0 -43 24 -74 54 -45 43 -53 55 -40 60 9 4 22 2 29 -4 7 -5 34
-13 61 -16 27 -4 69 -18 94 -32 43 -24 131 -97 138 -114 2 -4 -12 -8 -32 -8
-20 0 -36 -3 -36 -7 0 -10 134 -73 155 -73 21 0 57 -19 71 -38 10 -14 17 -12
58 12 25 15 46 31 46 35 0 5 9 11 20 14 11 3 20 10 20 16 0 17 -30 13 -36 -4
-4 -8 -14 -15 -24 -15 -10 0 -20 -9 -23 -20 -6 -24 -25 -26 -34 -5 -3 10 9 30
33 55 22 21 49 49 61 62 41 44 68 63 132 93 41 18 48 14 33 -20 -7 -14 -12
-34 -12 -43 -1 -18 -57 -58 -96 -68 -13 -3 -24 -10 -24 -16 0 -5 8 -7 18 -4 9
3 35 8 56 12 36 6 39 5 31 -12 -11 -27 -24 -94 -25 -125 l0 -27 157 4 c86 2
159 6 162 10 3 3 6 17 6 32 0 21 6 27 34 35 40 10 276 6 287 -5 4 -5 -1 -17
-11 -28 -15 -17 -31 -20 -109 -21 -86 0 -205 -15 -145 -18 14 0 34 -7 44 -15
18 -13 17 -14 -7 -30 -16 -10 -55 -19 -100 -22 -40 -3 -84 -8 -98 -11 -25 -5
-24 -6 9 -20 31 -13 32 -15 15 -28 -11 -7 -17 -15 -14 -18 11 -10 270 -12 270
-2 1 6 -13 13 -30 16 -17 4 -34 9 -37 13 -16 15 16 20 120 16 196 -6 192 -6
192 8 0 8 -25 24 -55 37 -56 24 -72 41 -47 51 8 3 81 -6 161 -21 81 -14 151
-23 156 -20 15 9 12 35 -4 35 -20 0 -106 40 -106 49 0 22 130 17 176 -7 32
-16 122 -24 129 -11 10 15 -15 38 -61 54 -48 16 -54 32 -17 46 29 11 255 7
326 -6 32 -6 37 -5 37 11 0 31 -12 40 -75 58 -33 10 -73 23 -90 28 -16 6 -52
14 -80 19 -27 4 -72 12 -100 18 -68 13 -386 13 -460 0 -33 -6 -80 -15 -105
-19 -70 -13 -132 -31 -163 -46 -16 -8 -35 -14 -44 -14 -8 0 -27 -6 -41 -14
-15 -8 -34 -17 -42 -20 -8 -4 -33 -17 -55 -31 -22 -13 -48 -27 -57 -31 -10 -3
-18 -10 -18 -15 0 -5 -11 -14 -25 -19 -14 -5 -25 -14 -25 -20 0 -19 -29 -10
-35 11 -5 14 0 27 17 42 35 32 108 91 124 100 8 4 14 15 14 23 0 12 -9 14 -45
8 -49 -7 -58 4 -27 35 22 22 115 81 129 81 11 0 43 33 43 45 0 4 -22 5 -50 1
-32 -4 -50 -3 -50 4 0 15 69 62 149 100 92 45 93 67 3 61 -47 -2 -62 0 -62 10
0 13 62 63 100 82 8 4 29 16 45 27 17 10 51 29 78 41 69 32 63 52 -15 47 -51
-2 -63 0 -66 13 -2 9 5 19 15 23 10 3 32 15 48 25 70 46 215 121 233 121 19 0
11 44 -8 47 -8 0 -42 -4 -75 -11z m-385 -326 c0 -5 -4 -10 -9 -10 -5 0 -13
-15 -16 -32 -8 -36 -59 -87 -88 -88 -11 0 -31 -7 -47 -16 -15 -10 -36 -14 -45
-10 -15 5 -11 12 22 44 72 68 117 102 135 102 9 0 20 5 23 10 3 6 10 10 16 10
5 0 9 -4 9 -10z m-1024 -145 c4 -8 13 -15 21 -15 38 0 197 -95 187 -111 -7
-12 -91 -12 -98 0 -3 5 -26 14 -50 20 -46 11 -76 33 -76 56 0 7 -12 20 -26 30
-21 13 -24 19 -13 26 22 14 49 11 55 -6z m936 -21 c11 -11 -58 -103 -84 -113
-16 -5 -28 -17 -28 -25 0 -10 -6 -13 -15 -10 -8 4 -26 -1 -40 -10 -29 -19 -65
-21 -64 -3 1 24 55 101 74 107 28 8 85 43 85 53 0 8 64 10 72 1z m677 -330
c17 -4 31 -12 31 -19 0 -24 -110 -33 -197 -15 -26 5 -66 12 -88 16 -33 5 -36
8 -20 14 24 10 229 13 274 4z m-1434 -273 c7 -12 -12 -24 -25 -16 -11 7 -4 25
10 25 5 0 11 -4 15 -9z m-45 -31 c0 -12 -7 -20 -18 -20 -10 0 -31 -12 -48 -27
-16 -16 -50 -44 -74 -63 -25 -19 -46 -38 -48 -42 -5 -11 -40 -10 -47 2 -8 14
-42 12 -88 -4 -20 -8 -39 -10 -42 -6 -7 12 96 110 115 110 10 0 23 7 30 15 7
8 22 15 34 15 11 0 31 8 43 18 15 11 45 18 83 20 54 2 60 0 60 -18z m-274 -25
c-13 -14 -27 -25 -32 -25 -6 0 -36 -27 -68 -59 l-59 -60 -59 3 c-54 3 -97 16
-51 16 12 0 23 8 26 20 3 11 14 20 25 20 11 0 25 7 32 15 7 8 18 15 24 15 6 0
23 8 36 18 21 14 120 57 142 61 4 0 -3 -10 -16 -24z m759 -1916 c0 -8 4 -20 8
-27 10 -15 -16 -27 -39 -18 -13 5 -14 9 -5 20 7 8 11 18 10 22 -3 18 1 26 14
21 6 -2 12 -10 12 -18z m3 -120 c-2 -6 -8 -10 -13 -10 -5 0 -11 4 -13 10 -2 6
4 11 13 11 9 0 15 -5 13 -11z m7 -59 c8 -13 -20 -24 -41 -16 -20 8 -9 26 16
26 10 0 22 -5 25 -10z m-5 -95 c-5 -6 -7 -15 -4 -18 4 -3 4 -14 0 -23 -5 -13
-9 -15 -18 -6 -15 15 -18 55 -5 64 17 11 39 -2 27 -17z m8 -160 c0 -32 -3 -35
-29 -35 -19 0 -29 5 -29 15 0 8 5 15 12 15 9 0 9 3 0 12 -19 19 -14 28 17 28
26 0 29 -3 29 -35z m-3 -130 c0 -11 3 -25 7 -31 11 -17 -1 -24 -39 -24 -32 0
-43 12 -23 25 6 3 10 17 10 31 0 21 4 25 23 22 14 -2 22 -10 22 -23z m8 -137
c8 -31 1 -38 -40 -38 -28 0 -34 3 -29 16 3 9 6 22 6 30 0 9 11 14 29 14 21 0
30 -6 34 -22z m-1 -148 c6 -37 3 -40 -39 -40 -31 0 -33 1 -29 33 3 17 5 33 5
35 1 1 14 2 30 2 24 0 29 -5 33 -30z m-8 -116 c9 -8 16 -22 16 -29 0 -15 -26
-45 -39 -45 -4 0 -16 9 -26 20 -15 17 -16 24 -7 45 13 29 34 32 56 9z m20
-159 c0 -29 -2 -30 -47 -33 l-47 -3 4 33 c3 18 5 34 5 36 1 2 20 2 43 0 39 -3
42 -5 42 -33z m-13 -106 c29 -29 19 -44 -36 -47 l-47 -3 7 28 c11 47 42 56 76
22z"/>
<path d="M6415 29024 c-11 -2 -47 -9 -80 -15 -125 -23 -256 -113 -336 -230
-21 -32 -39 -62 -39 -67 0 -5 -9 -17 -20 -27 -19 -17 -22 -17 -53 -2 -17 8
-59 23 -92 33 -57 16 -63 16 -130 0 -72 -18 -126 -53 -175 -110 -39 -46 -93
-128 -114 -171 -10 -22 -25 -52 -32 -67 -8 -14 -14 -31 -14 -37 0 -18 -62
-144 -88 -178 -52 -70 -62 -102 -62 -203 0 -107 15 -165 71 -270 4 -8 18 -35
31 -60 21 -43 86 -142 135 -206 57 -75 82 -317 48 -459 -26 -106 -18 -167 33
-274 25 -51 136 -216 169 -250 40 -42 147 -94 176 -86 42 13 100 60 139 112
21 29 45 53 52 53 8 0 15 -16 19 -39 9 -70 47 -131 98 -158 l46 -24 6 -332
c11 -589 26 -662 173 -827 54 -59 85 -76 189 -102 91 -22 148 -19 222 13 53
22 73 19 73 -12 0 -12 7 -44 16 -73 9 -28 22 -71 30 -96 29 -94 10 -235 -43
-322 -26 -42 -51 -48 -76 -20 -27 30 -20 56 28 106 26 28 45 57 45 70 0 25
-48 76 -72 76 -19 0 -121 75 -162 119 -25 26 -37 31 -78 31 -44 0 -50 -3 -59
-27 -6 -16 -15 -53 -19 -84 -5 -32 -13 -66 -19 -77 -6 -12 -11 -34 -11 -50 0
-16 -7 -49 -15 -72 -8 -23 -15 -59 -15 -80 0 -61 54 -248 78 -272 7 -7 12 -17
12 -23 0 -27 74 -78 158 -109 86 -32 290 -12 335 33 6 6 16 11 22 11 26 0 150
137 186 205 25 47 79 244 79 286 0 12 6 42 14 68 45 143 47 161 45 307 -3 139
-2 145 19 160 41 29 73 69 102 129 37 77 47 201 49 580 1 149 4 279 7 290 4
11 19 49 36 84 26 57 29 73 26 139 -2 48 1 76 8 79 6 2 34 -28 62 -66 56 -77
82 -89 166 -77 55 9 90 41 171 159 75 110 83 126 105 217 10 39 30 85 63 145
51 92 65 151 76 307 5 74 13 123 22 134 7 9 18 24 24 35 5 10 45 70 88 133 74
109 80 121 99 213 28 141 32 521 5 603 -64 195 -131 306 -205 344 -15 7 -76
16 -137 19 -98 6 -114 4 -143 -13 -20 -12 -34 -31 -40 -52 -11 -43 -41 -44
-62 -2 -39 79 -185 234 -281 299 -24 16 -46 33 -49 36 -8 9 -121 62 -175 81
-35 12 -81 17 -155 18 -115 0 -161 -12 -238 -64 -54 -36 -89 -37 -134 -2 -54
41 -127 57 -278 61 -74 2 -144 2 -155 -1z m885 -79 c41 -9 89 -22 107 -30 17
-8 34 -15 37 -15 29 0 265 -190 286 -230 9 -17 4 -22 -39 -41 -42 -18 -52 -28
-71 -70 -14 -34 -30 -53 -48 -61 -33 -13 -68 -28 -155 -67 -37 -17 -70 -31
-73 -31 -3 0 -26 -14 -51 -30 -88 -60 -97 -62 -186 -52 -45 5 -113 7 -150 5
-77 -6 -140 8 -207 46 -50 29 -93 49 -158 77 -37 15 -50 16 -85 6 -90 -26
-151 -34 -177 -22 -54 24 -81 43 -142 98 -35 31 -86 76 -113 99 -48 41 -49 43
-35 68 22 41 129 154 172 181 83 53 118 59 328 59 181 0 198 -2 235 -22 83
-44 130 -64 145 -59 48 15 90 34 125 55 43 26 114 49 155 50 14 1 59 -6 100
-14z m-1449 -326 c42 -13 78 -18 104 -15 38 5 43 3 115 -65 107 -102 147 -133
218 -169 l62 -33 61 18 c81 25 180 26 206 3 11 -10 24 -18 30 -18 5 0 30 -11
54 -25 24 -14 51 -27 59 -31 8 -3 30 -12 48 -20 25 -11 82 -14 233 -14 l201 0
67 45 c37 25 71 45 76 45 4 0 33 12 64 26 31 14 76 35 101 46 133 61 130 58
130 99 0 14 9 35 21 48 17 18 30 21 67 19 43 -3 48 -6 70 -45 40 -73 103 -72
146 2 l27 45 106 0 106 0 44 -45 c56 -59 90 -133 129 -282 19 -72 18 -326 -1
-472 -17 -126 -40 -184 -111 -281 -49 -68 -107 -165 -122 -205 -6 -16 -13 -79
-16 -140 -5 -121 -14 -152 -82 -289 -24 -50 -44 -100 -44 -112 0 -13 -4 -26
-10 -29 -5 -3 -10 -14 -10 -23 -1 -38 -81 -162 -153 -239 -45 -48 -93 -46
-139 4 -18 21 -54 58 -80 83 -38 36 -48 52 -48 78 0 18 -7 44 -16 57 -8 13
-14 36 -12 52 3 27 5 28 79 34 82 7 120 25 193 94 l39 37 -6 244 c-5 190 -10
250 -22 273 -26 52 -19 75 52 168 36 48 69 90 72 93 28 24 75 188 66 229 -3
16 -22 47 -41 69 -38 44 -43 76 -19 122 18 35 33 37 69 9 20 -16 26 -29 26
-60 0 -33 4 -40 26 -45 32 -8 44 7 44 55 0 95 -127 173 -190 116 -34 -31 -60
-90 -60 -137 0 -35 6 -50 36 -82 36 -39 36 -40 30 -105 -8 -71 -23 -105 -78
-170 -21 -24 -55 -69 -75 -100 -33 -49 -37 -63 -36 -111 1 -30 9 -72 17 -92
13 -30 16 -77 16 -240 0 -112 -4 -208 -8 -214 -4 -6 -29 -27 -55 -47 -46 -35
-53 -37 -121 -37 -84 0 -104 -14 -125 -88 -12 -41 -11 -46 14 -84 23 -35 26
-47 20 -82 -4 -23 -6 -80 -5 -127 2 -102 -18 -166 -47 -153 -10 4 -40 10 -68
13 l-50 6 -7 115 c-11 193 -40 274 -129 353 -65 57 -90 63 -110 25 -13 -24 -4
-35 62 -84 51 -37 85 -95 91 -156 3 -30 1 -33 -34 -39 -20 -3 -43 -11 -51 -18
-20 -16 -162 -13 -206 5 -52 21 -138 29 -156 14 -23 -19 -18 -44 15 -68 24
-18 43 -22 103 -22 47 0 85 6 103 15 38 20 89 19 109 -1 13 -13 28 -15 71 -11
65 7 77 -7 72 -80 l-3 -46 -155 2 c-119 2 -159 6 -171 17 -10 9 -42 15 -85 17
-68 2 -69 2 -72 -24 -5 -39 37 -64 133 -79 112 -17 231 -23 285 -15 71 11 23
23 -97 24 -101 1 -143 14 -80 24 48 9 236 12 243 4 4 -3 3 -14 -1 -24 -4 -10
-9 -31 -10 -48 -5 -44 -29 -152 -36 -159 -3 -4 -43 -13 -88 -22 -73 -14 -83
-14 -103 0 -12 9 -30 16 -39 16 -9 0 -28 9 -42 20 -37 29 -84 27 -99 -6 -10
-22 -9 -28 15 -50 14 -13 32 -24 39 -24 8 0 25 -8 38 -17 21 -15 45 -18 144
-16 l119 1 -9 -51 c-5 -29 -9 -121 -9 -205 0 -139 -2 -155 -19 -168 -17 -12
-17 -14 -3 -20 10 -3 17 -12 17 -20 0 -19 -29 -18 -36 1 -4 8 -18 15 -32 15
-14 0 -33 7 -42 15 -59 54 -142 2 -96 -61 13 -17 26 -19 110 -17 l96 2 9 -37
c24 -100 29 -126 25 -134 -9 -14 -84 -9 -90 6 -8 20 -50 29 -74 16 -23 -13
-27 -55 -6 -75 19 -20 91 -38 151 -39 l50 -1 8 -55 c11 -74 3 -221 -16 -295
-19 -71 -44 -177 -62 -260 -27 -121 -36 -148 -69 -198 -65 -103 -139 -162
-238 -191 -70 -20 -86 -20 -173 1 -84 20 -110 35 -139 82 -62 99 -84 257 -52
381 7 30 17 73 20 95 16 93 30 97 100 26 27 -28 65 -54 88 -62 22 -7 42 -19
45 -26 3 -7 -9 -29 -26 -50 -43 -53 -44 -113 0 -166 27 -33 35 -37 79 -37 45
0 51 3 87 44 55 63 73 127 76 271 1 94 -2 132 -16 175 -29 84 -114 313 -152
405 -7 17 -21 53 -31 80 -10 28 -24 61 -31 75 -7 14 -13 33 -13 42 0 9 -4 19
-9 23 -5 3 -13 20 -17 37 -3 18 -10 39 -15 48 -5 8 -18 38 -30 65 -28 68 -56
124 -80 160 -50 78 -79 155 -79 212 0 64 14 185 35 314 35 205 10 284 -122
387 -24 18 -59 60 -79 93 -20 32 -42 59 -49 59 -19 0 -48 -38 -42 -55 15 -37
95 -129 152 -175 61 -47 64 -51 70 -104 9 -71 3 -212 -10 -225 -6 -6 -29 -5
-60 1 -44 10 -57 8 -98 -10 -49 -22 -49 -22 -85 -2 -70 37 -79 50 -127 189
-14 41 -29 77 -33 80 -22 15 -124 246 -133 298 -25 161 -30 213 -25 263 10 92
51 295 71 350 29 83 53 184 72 307 8 49 -25 129 -69 169 -49 44 -78 51 -125
27 -32 -15 -38 -24 -41 -53 -2 -30 2 -38 31 -57 39 -27 69 -29 87 -8 17 21 25
19 39 -11 8 -19 8 -42 0 -92 -12 -74 -47 -224 -59 -256 -11 -29 -36 -127 -55
-221 -20 -96 -16 -353 8 -451 15 -62 99 -248 117 -259 35 -22 -24 -123 -107
-182 l-45 -32 -48 24 c-50 25 -78 56 -152 170 -82 125 -93 152 -92 230 1 38 6
116 12 173 12 118 1 282 -25 352 -9 25 -30 65 -47 90 -16 25 -47 70 -68 101
-68 101 -127 227 -144 307 -20 98 -8 162 46 247 39 62 80 142 80 157 0 41 107
228 168 295 70 75 168 93 293 52z m1099 -2118 c0 -10 -35 -21 -72 -21 -27 0
-43 12 -31 24 10 9 103 7 103 -3z m310 -5 c0 -22 -13 -26 -53 -15 -51 14 -46
29 8 29 33 0 45 -4 45 -14z m-310 -175 c0 -13 -26 -21 -65 -21 -33 0 -51 11
-38 24 10 9 103 7 103 -3z m-498 -29 c6 -6 6 -24 -1 -48 -6 -22 -11 -92 -11
-156 0 -112 1 -119 30 -168 l30 -51 0 -225 0 -226 32 -91 c36 -106 61 -149
112 -194 61 -53 44 -65 -57 -39 -75 19 -106 37 -156 88 -52 53 -89 113 -114
187 -15 46 -20 103 -27 326 -5 149 -12 338 -16 420 l-6 151 28 14 c16 8 38 18
49 22 25 9 94 3 107 -10z m970 -44 c13 -12 14 -59 8 -413 -6 -367 -8 -405 -27
-457 -23 -65 -62 -128 -80 -128 -6 0 -19 26 -28 57 -25 87 -26 597 -1 703 30
127 36 159 36 185 0 49 56 81 92 53z m-472 -203 c0 -9 -9 -15 -25 -15 -24 0
-32 10 -18 23 12 13 43 7 43 -8z m80 -25 c0 -11 -48 -25 -56 -17 -4 3 -3 10 1
16 8 14 55 14 55 1z m185 0 c3 -6 -1 -13 -9 -16 -21 -8 -66 3 -66 16 0 13 67
13 75 0z m-613 -318 c9 -20 26 -66 37 -102 25 -83 40 -128 56 -165 7 -16 20
-50 30 -75 26 -70 39 -100 73 -170 37 -76 39 -90 11 -90 -47 0 -189 144 -189
192 0 10 -6 31 -13 46 -8 15 -19 52 -25 82 -13 62 -24 305 -15 314 12 11 18 6
35 -32z m466 -194 c-5 -15 -58 -24 -58 -10 0 15 12 22 38 22 14 0 22 -5 20
-12z m62 -238 c0 -6 -7 -13 -15 -16 -20 -8 -48 3 -40 16 8 13 55 13 55 0z
m115 -40 c0 -12 -10 -14 -45 -12 -51 4 -55 6 -45 22 11 17 90 8 90 -10z"/>
<path d="M6100 27401 c-5 -11 -10 -26 -10 -34 0 -15 66 -47 95 -47 19 0 19
-24 1 -40 -27 -22 -38 -75 -26 -122 15 -55 73 -126 118 -145 31 -13 40 -13 78
2 52 20 64 14 64 -30 0 -54 19 -85 51 -85 75 0 56 89 -60 280 -11 19 -25 44
-30 55 -24 53 -85 106 -166 145 -46 22 -88 40 -94 40 -6 0 -15 -9 -21 -19z
m229 -216 c28 -46 51 -89 51 -94 0 -6 -16 -13 -36 -17 -33 -6 -40 -3 -75 32
-47 47 -63 118 -34 147 9 9 22 17 30 17 7 0 36 -38 64 -85z"/>
<path d="M7577 27350 c-33 -17 -64 -30 -71 -30 -17 0 -98 -87 -126 -135 -13
-22 -27 -42 -31 -45 -6 -4 -16 -22 -58 -100 -50 -93 -53 -121 -17 -145 19 -12
30 -14 44 -6 21 11 37 55 27 72 -19 30 25 64 51 40 10 -10 43 -15 85 -13 33 2
96 65 121 121 22 49 20 101 -7 127 -21 21 -15 48 10 52 68 10 80 22 69 68 -8
31 -26 30 -97 -6z m-44 -130 c26 -31 21 -73 -16 -122 -29 -38 -38 -43 -73 -43
-32 0 -40 4 -42 21 -4 26 87 164 107 164 4 0 14 -9 24 -20z"/>
<path d="M7015 26440 c8 -13 70 -23 100 -16 47 12 25 26 -41 26 -39 0 -63 -4
-59 -10z"/>
<path d="M3100 28388 c-25 -5 -77 -13 -117 -18 -39 -4 -87 -13 -105 -18 -18
-6 -60 -18 -93 -27 -33 -9 -73 -23 -90 -30 -95 -41 -135 -61 -135 -67 0 -5 -7
-8 -15 -8 -8 0 -23 -9 -32 -20 -10 -11 -23 -20 -29 -20 -6 0 -17 -7 -24 -15
-19 -23 -39 -18 -51 12 -8 22 -12 24 -19 13 -6 -8 -10 -21 -10 -29 0 -8 -8
-23 -17 -34 -17 -20 -17 -20 7 -12 14 4 116 10 228 12 177 3 203 2 208 -12 4
-9 -2 -25 -11 -35 -16 -17 -31 -20 -117 -20 -92 0 -126 -10 -76 -23 17 -5 19
-9 9 -21 -17 -20 -8 -23 94 -30 50 -4 107 -9 127 -12 33 -5 36 -4 31 15 -3 11
-14 23 -24 26 -41 13 -17 26 39 21 31 -3 88 -8 125 -11 37 -3 81 -8 97 -12 22
-4 30 -2 30 8 0 27 -18 42 -56 48 -25 4 -39 12 -39 21 0 13 17 14 105 12 59
-2 120 -10 139 -18 38 -16 81 -18 81 -5 0 14 -50 51 -70 51 -19 0 -50 30 -50
49 0 9 9 11 28 7 15 -3 68 -13 117 -21 50 -8 100 -20 113 -27 16 -8 25 -9 34
0 18 18 2 39 -51 64 -50 22 -64 41 -38 51 7 2 91 1 187 -3 182 -8 200 -6 200
15 0 26 -201 90 -335 106 -38 5 -90 13 -115 18 -55 12 -219 12 -280 -1z m82
-136 c76 -29 46 -42 -81 -35 -83 4 -110 10 -123 23 -9 10 -14 21 -11 24 14 14
169 5 215 -12z m-183 -57 c17 -8 31 -19 31 -23 0 -34 -76 -40 -248 -21 -105
12 -144 24 -102 32 14 3 54 12 90 21 77 18 185 14 229 -9z"/>
<path d="M11380 28090 c-20 -12 -5 -24 16 -12 9 5 12 12 7 15 -5 3 -15 2 -23
-3z"/>
<path d="M2445 28060 c-14 -6 -4 -9 35 -8 42 0 49 2 30 8 -32 10 -41 10 -65 0z"/>
<path d="M11493 28023 c9 -2 25 -2 35 0 9 3 1 5 -18 5 -19 0 -27 -2 -17 -5z"/>
<path d="M2531 27971 c-18 -11 -7 -27 32 -48 18 -9 52 -33 77 -53 25 -21 55
-41 67 -44 34 -11 73 -46 73 -67 0 -11 7 -22 15 -25 8 -4 15 -15 15 -25 0 -10
7 -19 15 -19 8 0 15 9 15 20 0 11 -7 23 -15 26 -19 8 -20 34 -2 34 8 0 41 -13
73 -30 56 -28 114 -80 127 -115 4 -8 11 -15 17 -15 5 0 10 -10 10 -23 0 -13 5
-28 11 -34 6 -6 9 -19 6 -29 -5 -18 -5 -18 -12 1 -8 24 -66 55 -103 55 -27 0
-70 42 -85 83 -9 23 -27 22 -27 -2 0 -26 -20 -38 -34 -20 -19 24 -66 41 -81
29 -17 -14 -61 12 -71 42 -4 14 -9 17 -17 9 -7 -7 -7 -18 1 -36 18 -39 15 -45
-20 -38 l-33 6 28 -30 c15 -16 27 -34 27 -41 0 -7 3 -12 8 -12 4 0 18 -16 31
-35 13 -19 27 -35 32 -35 14 0 10 34 -6 56 -18 24 -20 74 -2 74 7 0 25 -15 41
-32 66 -76 186 -198 195 -198 19 0 22 21 7 45 -17 26 -22 85 -7 85 5 0 37 -37
72 -81 35 -45 69 -87 74 -93 6 -6 23 -30 39 -54 16 -23 34 -41 40 -39 14 5 8
64 -10 101 -17 36 -18 46 -1 46 20 0 50 -32 102 -110 42 -63 50 -78 80 -140
25 -52 28 -54 41 -35 16 22 11 61 -13 108 -18 35 -10 50 21 36 27 -13 90 -107
140 -211 36 -76 60 -96 73 -63 8 22 -32 200 -54 240 -6 11 -26 51 -44 89 -40
84 -95 159 -180 247 -61 63 -189 169 -204 169 -3 0 -21 11 -38 24 -18 14 -43
29 -57 35 -14 6 -32 15 -40 20 -14 8 -41 20 -122 55 -20 9 -45 16 -56 16 -12
0 -24 5 -27 10 -3 6 -36 10 -72 10 -60 0 -68 3 -106 35 -44 38 -46 39 -66 26z
m622 -401 c21 -22 44 -40 52 -40 8 0 15 -8 15 -17 0 -9 7 -25 17 -35 23 -26 8
-35 -27 -15 -18 11 -31 14 -35 7 -9 -14 -25 -12 -25 3 0 8 -9 22 -20 32 -11
10 -20 24 -20 32 0 7 -7 16 -15 19 -8 4 -15 19 -15 34 0 16 -4 32 -10 35 -5 3
-10 11 -10 16 0 15 51 -24 93 -71z"/>
<path d="M11551 27941 c-16 -11 -7 -16 41 -25 26 -5 52 -21 80 -49 24 -24 64
-54 91 -67 26 -14 47 -31 47 -39 0 -18 39 -81 51 -81 13 0 11 44 -3 58 -6 6
-9 14 -6 17 6 6 151 -65 156 -76 1 -3 18 -23 36 -44 35 -39 65 -110 52 -123
-4 -4 -13 0 -19 9 -7 8 -24 24 -40 33 -21 15 -30 16 -42 6 -21 -18 -60 22 -95
98 -12 28 -30 20 -30 -14 0 -27 -24 -33 -38 -8 -6 11 -24 16 -56 16 -39 1 -51
6 -70 29 -13 16 -26 34 -29 41 -2 7 -7 10 -11 7 -4 -3 -2 -18 4 -33 5 -15 10
-39 10 -52 0 -21 -4 -24 -20 -19 -31 10 -24 -10 20 -57 22 -24 40 -49 40 -55
0 -7 7 -13 16 -13 13 0 15 7 10 32 -3 18 -11 35 -17 39 -7 4 -8 12 -5 18 8 13
56 15 56 3 0 -5 23 -33 51 -63 28 -30 70 -75 94 -101 24 -27 49 -48 55 -48 16
0 12 56 -5 70 -17 14 -20 46 -5 55 6 4 25 -10 43 -31 17 -20 45 -51 60 -68 16
-17 47 -59 69 -93 22 -35 45 -63 50 -63 17 0 20 31 8 76 -10 35 -10 48 -1 57
9 9 16 6 32 -13 39 -51 115 -166 136 -209 24 -49 49 -69 65 -53 6 6 5 19 -5
38 -19 38 -26 106 -10 111 18 6 79 -85 140 -209 25 -51 44 -78 55 -78 9 0 18
5 20 11 5 16 -16 139 -30 172 -7 16 -12 34 -12 41 0 27 -91 189 -148 263 -110
144 -270 272 -442 353 -25 12 -54 26 -64 32 -41 22 -177 58 -248 65 -39 4 -48
9 -48 24 0 15 -7 19 -37 19 -21 0 -44 -4 -52 -9z m657 -395 c23 -22 42 -45 42
-52 0 -6 7 -14 15 -18 8 -3 15 -15 15 -26 l0 -21 -26 20 c-21 16 -30 18 -46
10 -21 -11 -37 1 -38 27 0 7 -7 14 -15 18 -8 3 -15 14 -15 24 0 11 -7 25 -15
32 -15 13 -20 42 -9 53 7 7 25 -6 92 -67z"/>
<path d="M11433 27933 c15 -2 37 -2 50 0 12 2 0 4 -28 4 -27 0 -38 -2 -22 -4z"/>
<path d="M2550 27825 c0 -3 9 -14 21 -26 26 -26 39 -16 14 11 -17 19 -35 26
-35 15z"/>
<path d="M11610 27790 c0 -5 9 -19 20 -30 16 -16 20 -17 20 -5 0 8 -4 15 -10
15 -5 0 -10 7 -10 15 0 8 -4 15 -10 15 -5 0 -10 -4 -10 -10z"/>
<path d="M2493 27686 c9 -7 17 -18 17 -25 0 -6 9 -11 20 -11 30 0 24 16 -12
34 -38 19 -49 20 -25 2z"/>
<path d="M11510 27695 c0 -14 21 -43 35 -49 25 -9 17 20 -10 38 -14 9 -25 14
-25 11z"/>
<path d="M1915 27620 c-4 -12 -2 -27 3 -32 7 -7 12 -3 17 12 4 12 2 27 -3 32
-7 7 -12 3 -17 -12z"/>
<path d="M10950 27553 c0 -28 3 -34 10 -23 13 20 13 60 0 60 -5 0 -10 -17 -10
-37z"/>
<path d="M11190 27457 c0 -7 9 -18 20 -25 17 -10 26 -10 50 3 44 23 37 35 -20
35 -34 0 -50 -4 -50 -13z"/>
<path d="M4992 22823 c-4 -1 -20 -4 -35 -7 -40 -9 -117 -83 -117 -113 0 -39
45 -117 104 -179 31 -33 56 -62 56 -67 0 -4 11 -12 25 -17 14 -5 28 -18 32
-27 3 -10 18 -29 32 -43 83 -82 300 -342 327 -393 9 -16 37 -61 63 -100 56
-83 156 -269 220 -407 24 -52 50 -107 57 -122 28 -53 89 -246 125 -393 6 -22
15 -54 20 -71 5 -17 9 -42 9 -57 0 -14 4 -37 9 -51 18 -45 22 -204 7 -241 -18
-42 -33 -44 -291 -45 -266 0 -295 -5 -352 -63 -60 -59 -62 -72 -62 -429 -1
-157 -4 -294 -7 -303 -14 -36 -56 -45 -165 -35 -100 9 -138 15 -280 46 -37 8
-79 14 -95 14 -15 0 -50 6 -78 14 -28 8 -105 28 -171 44 -66 17 -156 44 -200
60 -44 17 -111 42 -150 56 -84 31 -288 131 -330 161 -16 12 -41 26 -55 30 -14
4 -41 19 -60 34 -37 28 -58 41 -104 69 -25 15 -49 33 -146 112 -108 88 -271
229 -348 302 -82 76 -177 138 -213 138 -20 0 -99 -84 -107 -114 -4 -17 -7
-760 -6 -1651 1 -1791 -5 -1647 68 -1704 71 -56 120 -31 311 155 66 65 147
139 180 166 33 26 71 57 85 68 75 61 286 199 407 267 94 52 260 133 275 133 7
0 23 7 35 15 12 9 49 24 81 34 33 11 80 29 105 40 25 12 69 26 96 32 28 6 53
15 57 20 3 5 14 9 24 9 10 0 54 11 97 24 102 31 347 68 536 82 98 7 144 -5
152 -40 3 -11 6 -176 7 -366 l3 -345 35 -47 c56 -74 68 -77 364 -83 159 -3
263 -9 271 -15 32 -27 39 -69 26 -167 -7 -53 -19 -116 -27 -142 -7 -25 -14
-59 -14 -74 0 -16 -4 -36 -10 -46 -5 -10 -17 -54 -25 -97 -9 -44 -22 -88 -29
-99 -7 -11 -16 -38 -20 -60 -4 -22 -15 -58 -25 -80 -10 -22 -28 -65 -41 -95
-27 -66 -121 -260 -153 -313 -72 -124 -259 -390 -302 -432 -12 -11 -39 -43
-61 -70 -21 -28 -61 -70 -89 -95 -27 -25 -52 -49 -54 -55 -2 -5 -50 -56 -107
-112 -57 -56 -104 -104 -104 -108 0 -3 -11 -21 -25 -39 -14 -19 -25 -46 -25
-64 0 -40 42 -89 97 -113 42 -18 107 -19 1721 -18 1856 0 1735 -4 1806 65 69
67 53 98 -146 285 -159 149 -178 168 -241 240 -92 107 -146 177 -165 216 -12
23 -26 44 -32 48 -11 7 -130 186 -153 232 -9 16 -22 35 -31 42 -8 7 -20 28
-26 47 -7 19 -24 56 -38 82 -31 54 -68 139 -87 198 -7 22 -24 70 -38 105 -36
94 -67 193 -67 214 0 21 -18 80 -32 108 -12 24 -48 237 -48 285 0 20 8 56 17
78 l17 42 71 6 c38 4 149 6 245 5 101 -1 186 3 201 9 36 15 105 96 113 133 3
17 6 181 6 364 0 331 0 332 23 353 23 22 77 28 167 18 25 -3 95 -10 155 -16
61 -6 137 -16 170 -22 33 -5 72 -11 86 -12 15 -2 40 -7 55 -13 16 -6 65 -19
109 -28 44 -10 94 -24 112 -31 17 -8 36 -14 43 -14 7 0 51 -15 99 -34 47 -18
105 -39 129 -46 23 -7 47 -19 53 -27 6 -7 18 -13 25 -13 13 0 148 -63 204 -95
14 -8 40 -22 59 -31 18 -8 45 -23 60 -33 14 -10 86 -58 160 -107 73 -49 153
-106 176 -126 24 -21 48 -38 53 -38 6 0 17 -9 25 -20 7 -10 31 -33 52 -50 21
-17 94 -84 161 -148 67 -65 135 -124 151 -132 15 -8 39 -22 52 -32 44 -33 103
-18 136 34 11 17 28 45 38 62 16 29 17 123 16 1636 0 1554 -1 1606 -19 1648
-23 52 -68 99 -103 107 -40 10 -123 -43 -235 -150 -90 -86 -171 -157 -297
-261 -49 -40 -258 -184 -267 -184 -3 0 -43 -23 -89 -51 -171 -103 -503 -250
-689 -304 -143 -42 -197 -57 -215 -60 -11 -2 -42 -8 -70 -15 -27 -6 -88 -17
-135 -25 -47 -7 -92 -16 -100 -19 -8 -3 -46 -8 -85 -10 -38 -2 -95 -7 -125
-11 -67 -8 -127 13 -135 48 -3 12 -7 169 -9 348 l-3 326 -32 41 c-20 24 -53
49 -83 62 -46 20 -65 21 -241 19 -206 -2 -279 5 -298 27 -15 18 -5 201 16 314
25 135 53 255 70 300 9 25 25 74 37 110 11 36 28 83 39 106 10 22 19 44 19 48
0 13 81 180 95 196 7 8 16 30 20 48 4 18 17 45 30 60 13 16 34 48 47 73 23 42
98 156 171 262 19 26 60 80 93 118 32 39 69 85 82 102 13 18 35 43 50 58 87
82 238 250 269 298 20 31 36 69 36 84 0 34 -62 102 -107 117 -20 6 -598 11
-1669 12 -900 2 -1640 2 -1645 1z m3366 -103 c2 -6 -34 -50 -81 -98 -98 -101
-205 -216 -268 -287 -24 -27 -46 -52 -49 -55 -13 -12 -169 -214 -206 -267 -94
-133 -314 -531 -314 -568 0 -6 -6 -22 -14 -37 -20 -39 -102 -285 -111 -333 -4
-22 -10 -44 -13 -50 -20 -30 -67 -394 -75 -570 l-2 -60 321 4 c235 2 327 0
343 -8 l22 -12 -2 -410 c-1 -225 1 -413 5 -416 8 -9 208 -4 326 8 148 14 403
57 425 70 6 4 28 9 50 13 22 4 51 11 65 16 14 5 59 18 100 30 41 12 84 25 95
29 11 5 47 18 80 31 205 76 304 121 460 207 33 19 74 40 90 49 17 8 42 22 56
32 15 9 55 35 90 56 65 41 284 201 317 233 10 10 38 36 63 58 24 21 103 94
175 162 72 68 139 123 148 123 15 0 16 -134 16 -1690 0 -1918 10 -1734 -90
-1632 -31 31 -76 75 -101 96 -24 21 -71 64 -104 95 -159 150 -271 241 -400
326 -33 22 -62 43 -65 46 -29 32 -332 190 -505 263 -16 7 -47 21 -68 30 -21 9
-42 16 -48 16 -6 0 -25 6 -42 14 -18 8 -66 24 -107 36 -41 12 -88 26 -105 31
-129 37 -227 59 -340 75 -105 15 -428 44 -528 47 l-59 2 -1 -445 -2 -445 -338
-3 -339 -2 5 -133 c6 -146 33 -319 72 -457 43 -150 70 -236 85 -275 4 -11 18
-49 31 -85 12 -36 42 -107 66 -158 24 -52 43 -98 43 -103 0 -5 4 -9 9 -9 5 0
12 -13 16 -30 4 -16 10 -30 15 -30 5 0 12 -10 16 -22 4 -13 10 -25 13 -28 4
-3 25 -34 46 -70 22 -36 58 -92 81 -125 22 -33 56 -82 75 -110 19 -27 37 -52
40 -55 3 -3 25 -30 48 -60 71 -91 132 -160 216 -245 90 -92 240 -223 270 -237
27 -13 58 -56 49 -69 -4 -7 -21 -9 -46 -5 -33 5 -3403 8 -3478 3 -35 -3 -40
35 -8 60 31 24 210 203 329 329 148 156 359 440 447 602 101 187 222 465 222
513 0 8 6 26 14 41 8 14 17 46 21 69 4 24 11 50 16 59 8 15 16 48 45 185 21
99 54 341 54 397 l0 48 -357 2 -358 3 -3 449 -2 449 -73 -7 c-39 -4 -146 -14
-237 -22 -228 -19 -471 -61 -590 -103 -14 -5 -59 -19 -100 -31 -41 -13 -89
-29 -107 -36 -17 -8 -36 -14 -42 -14 -6 0 -19 -4 -29 -10 -9 -5 -45 -21 -79
-35 -268 -109 -530 -258 -763 -435 -110 -83 -145 -116 -390 -351 -19 -19 -45
-47 -57 -62 -12 -16 -29 -27 -38 -25 -14 3 -15 169 -15 1683 0 1444 2 1680 14
1683 8 2 40 -23 73 -55 32 -32 81 -78 108 -102 28 -25 93 -85 147 -134 179
-164 446 -353 633 -447 28 -14 52 -28 53 -32 2 -5 10 -8 18 -8 7 0 40 -13 71
-29 32 -16 85 -39 118 -52 33 -13 64 -27 70 -31 5 -4 18 -8 30 -8 11 0 29 -6
40 -14 11 -7 36 -17 55 -20 19 -4 44 -11 55 -16 25 -11 148 -42 295 -76 237
-54 604 -103 675 -90 29 6 35 12 39 39 3 18 10 59 16 91 5 33 10 205 10 382 0
322 0 323 22 330 12 3 172 5 357 3 l336 -4 3 55 c3 66 -31 378 -52 470 -30
131 -73 280 -107 365 -4 11 -18 45 -30 75 -37 95 -50 122 -103 230 -71 141
-123 236 -157 288 -16 24 -29 47 -29 52 0 4 -4 10 -8 12 -4 2 -19 21 -32 43
-40 67 -187 258 -250 325 -8 9 -71 77 -140 151 -68 73 -151 160 -182 191 -57
56 -68 73 -48 80 6 2 785 2 1732 1 1171 -2 1724 -6 1726 -13z"/>
<path d="M5035 22660 c-2 -3 47 -57 108 -121 165 -171 208 -217 267 -294 30
-39 57 -72 61 -75 34 -27 256 -384 313 -505 21 -44 42 -87 47 -95 5 -8 12 -22
15 -30 4 -8 19 -43 35 -78 16 -34 29 -68 29 -75 0 -7 4 -17 9 -22 5 -6 14 -26
19 -45 13 -44 31 -95 49 -137 7 -17 13 -36 13 -43 0 -7 7 -35 16 -64 32 -101
37 -120 44 -175 5 -31 13 -74 19 -96 6 -22 11 -137 11 -256 0 -197 -2 -217
-17 -224 -10 -4 -164 -6 -343 -5 -179 1 -329 2 -335 1 -6 -1 -9 -81 -6 -228 4
-270 -12 -489 -41 -545 -30 -57 -72 -72 -187 -65 -113 7 -230 23 -321 43 -36
8 -80 14 -98 14 -18 0 -49 7 -69 15 -19 8 -50 15 -67 15 -17 0 -47 5 -66 11
-19 6 -60 16 -90 24 -30 7 -82 20 -115 30 -33 9 -73 21 -90 25 -46 13 -118 39
-137 50 -10 6 -25 10 -34 10 -9 0 -28 7 -42 14 -15 8 -45 22 -67 31 -52 22
-249 119 -300 148 -90 52 -252 158 -290 189 -5 5 -33 26 -62 46 -84 62 -360
307 -417 371 -11 11 -24 21 -30 21 -8 0 -11 -435 -11 -1555 0 -855 3 -1555 6
-1555 3 0 35 30 71 68 75 78 163 160 232 217 26 22 58 48 70 59 11 10 32 26
46 35 14 9 30 19 35 24 46 36 129 94 174 120 29 18 65 40 80 49 48 31 68 43
152 86 46 24 91 47 99 52 19 10 143 68 190 88 19 8 44 20 55 25 11 6 33 14 50
18 16 4 55 17 85 29 30 12 66 24 80 27 14 3 30 10 36 14 6 5 31 13 55 18 60
13 127 31 169 44 19 6 58 14 85 18 28 4 73 12 100 18 119 23 199 33 340 42 83
5 185 12 228 15 62 6 81 4 88 -7 5 -8 9 -203 8 -447 0 -239 2 -436 4 -439 3
-2 160 -5 349 -6 l343 -2 3 -175 c1 -103 -2 -193 -8 -220 -7 -25 -15 -70 -19
-101 -5 -30 -13 -71 -19 -90 -5 -19 -18 -61 -27 -94 -9 -33 -22 -80 -30 -105
-7 -25 -16 -60 -20 -77 -4 -18 -11 -35 -16 -38 -5 -4 -9 -16 -9 -28 0 -12 -7
-35 -15 -51 -8 -15 -15 -33 -15 -38 0 -6 -7 -26 -16 -46 -35 -82 -47 -108 -55
-122 -5 -8 -12 -22 -15 -30 -11 -30 -76 -156 -94 -185 -11 -16 -24 -39 -30
-50 -44 -83 -167 -261 -271 -391 -57 -71 -176 -202 -266 -291 -90 -90 -161
-163 -158 -163 245 -4 3255 2 3256 6 0 3 -35 34 -78 69 -107 86 -283 272 -353
374 -14 19 -35 47 -48 61 -13 14 -33 41 -44 60 -12 19 -24 37 -27 40 -11 10
-51 69 -51 76 0 3 -13 23 -30 44 -16 21 -30 41 -30 46 0 4 -7 15 -15 24 -31
34 -195 353 -195 379 0 9 -4 21 -9 26 -10 11 -28 58 -63 165 -11 36 -27 79
-34 97 -8 17 -14 40 -14 51 0 11 -7 33 -15 48 -8 16 -15 40 -15 53 0 13 -7 44
-15 70 -39 126 -65 310 -65 466 0 115 1 125 21 135 14 8 121 11 337 9 l317 -2
5 449 5 449 75 -1 c110 -1 397 -21 476 -34 38 -6 96 -16 129 -21 33 -6 85 -15
115 -19 30 -4 66 -12 80 -18 14 -6 46 -14 72 -17 26 -3 50 -10 53 -16 4 -5 18
-9 33 -9 15 0 40 -7 56 -15 15 -8 36 -15 45 -15 9 0 29 -7 45 -15 15 -8 36
-15 45 -15 10 0 26 -7 37 -15 10 -8 28 -15 40 -15 11 0 29 -7 40 -15 10 -8 25
-15 31 -15 41 -1 479 -228 503 -261 3 -3 15 -9 28 -13 12 -4 22 -12 22 -17 0
-5 5 -9 10 -9 9 0 100 -65 203 -144 64 -49 228 -197 336 -304 40 -40 75 -71
77 -69 6 6 5 3109 -1 3115 -3 3 -51 -39 -108 -94 -135 -131 -231 -214 -321
-279 -16 -11 -33 -25 -40 -30 -19 -18 -211 -145 -218 -145 -4 0 -26 -12 -50
-27 -24 -16 -52 -33 -63 -40 -26 -16 -280 -142 -325 -161 -19 -8 -47 -21 -62
-29 -14 -7 -34 -13 -45 -13 -10 0 -27 -7 -37 -15 -11 -8 -29 -15 -40 -15 -12
0 -30 -7 -40 -15 -11 -8 -27 -15 -37 -15 -9 0 -30 -7 -45 -15 -16 -8 -39 -15
-51 -15 -12 0 -24 -4 -28 -9 -3 -6 -26 -13 -52 -17 -25 -4 -58 -13 -72 -20
-14 -8 -41 -14 -59 -14 -18 0 -43 -5 -54 -11 -12 -7 -47 -15 -77 -20 -31 -4
-83 -13 -116 -19 -170 -31 -215 -35 -405 -35 l-205 0 -3 420 -2 420 -333 -4
c-295 -3 -334 -1 -346 13 -11 13 -11 41 -1 158 7 79 16 184 20 233 7 94 22
186 45 270 24 93 36 140 46 185 5 24 14 49 19 54 6 6 10 19 10 29 0 10 6 33
14 50 7 18 21 52 31 77 53 139 210 449 261 517 13 17 24 35 24 38 0 4 8 17 18
30 9 12 24 33 32 45 101 154 281 369 454 543 53 53 93 97 89 97 -195 4 -3186
3 -3188 0z m2920 -104 c9 -44 -2 -64 -86 -156 -74 -81 -190 -232 -248 -320
-20 -30 -39 -59 -44 -65 -7 -10 -78 -115 -109 -163 -10 -15 -23 -38 -29 -52
-5 -14 -24 -54 -41 -90 -72 -155 -88 -188 -112 -245 -14 -33 -33 -87 -42 -120
-9 -33 -25 -76 -35 -95 -11 -19 -16 -42 -13 -52 3 -9 0 -27 -6 -38 -16 -31
-46 -154 -59 -245 -6 -44 -16 -100 -21 -125 -11 -53 -18 -150 -21 -275 -3
-168 -2 -171 37 -215 52 -57 78 -62 336 -54 l223 6 38 -36 38 -36 -2 -302 c-2
-361 3 -393 64 -439 31 -23 37 -24 247 -26 118 0 235 3 260 8 25 6 81 14 125
19 127 13 217 29 255 44 19 8 64 22 100 31 68 18 112 32 145 45 11 5 43 14 70
20 44 10 98 31 157 61 10 5 23 9 29 9 17 0 235 100 339 156 25 13 68 35 95 48
28 13 56 31 63 39 7 8 24 18 38 21 14 4 57 30 97 59 40 29 85 61 100 71 16 9
36 24 45 31 9 8 34 27 54 42 108 82 144 112 157 126 7 10 19 17 26 17 6 0 20
9 30 20 26 29 52 26 59 -7 3 -16 5 -235 5 -488 0 -253 0 -809 1 -1235 0 -426
1 -791 0 -811 0 -20 -8 -47 -19 -60 l-19 -23 -67 54 c-37 30 -88 75 -114 100
-47 45 -209 162 -259 189 -15 8 -43 26 -62 41 -38 29 -187 120 -197 120 -3 0
-28 14 -55 30 -26 17 -56 30 -65 30 -9 0 -26 9 -37 19 -12 10 -41 26 -66 34
-25 9 -64 25 -87 36 -23 12 -51 21 -61 21 -11 0 -30 8 -43 19 -13 10 -53 27
-89 36 -36 10 -73 22 -82 27 -10 5 -37 12 -60 17 -24 5 -77 18 -118 29 -41 11
-104 23 -139 26 -36 3 -72 12 -80 20 -9 7 -59 18 -111 25 -111 12 -171 17
-445 36 -44 3 -89 10 -100 16 -45 22 -157 -55 -175 -120 -5 -20 -10 -180 -10
-359 -1 -193 -5 -334 -11 -350 -6 -15 -20 -37 -31 -49 -21 -23 -26 -23 -255
-23 -260 0 -274 -3 -333 -64 l-35 -37 0 -187 c1 -165 4 -202 28 -312 15 -69
34 -150 43 -180 8 -30 21 -81 29 -112 7 -32 17 -64 23 -71 6 -7 16 -38 22 -68
6 -30 24 -81 40 -114 15 -33 34 -78 41 -100 23 -71 179 -380 202 -399 7 -6 33
-42 58 -81 91 -142 157 -232 221 -302 21 -24 38 -46 38 -51 0 -4 29 -39 65
-77 68 -73 86 -108 66 -128 -8 -8 -54 -12 -129 -13 -794 -9 -2520 2 -2556 16
-14 5 -26 12 -26 16 0 10 100 133 119 147 10 6 22 20 27 29 5 9 28 38 51 65
84 95 253 329 253 349 0 4 8 17 19 28 18 21 74 119 138 246 19 36 38 72 43 80
23 37 130 326 130 351 0 15 4 30 9 33 5 4 12 25 16 49 4 23 14 55 22 70 8 16
16 47 18 70 5 66 16 117 35 177 12 35 22 114 29 220 15 230 4 273 -83 324
l-45 26 -248 -1 c-273 -1 -295 3 -317 55 -9 23 -13 118 -14 366 0 377 -3 396
-70 447 -33 25 -44 27 -112 26 -41 -1 -97 -4 -125 -8 -27 -3 -102 -8 -165 -10
-63 -3 -162 -15 -220 -27 -58 -11 -114 -22 -125 -23 -11 -1 -31 -6 -45 -12
-14 -6 -61 -16 -104 -23 -43 -6 -88 -16 -100 -20 -12 -5 -68 -23 -126 -40 -58
-17 -128 -42 -157 -56 -28 -13 -58 -24 -66 -24 -8 0 -35 -11 -61 -25 -26 -14
-53 -25 -61 -25 -8 0 -76 -32 -152 -71 -217 -112 -266 -139 -303 -168 -19 -15
-46 -34 -60 -41 -14 -7 -60 -39 -103 -71 -43 -33 -80 -59 -83 -59 -3 0 -44
-33 -91 -72 -147 -125 -164 -134 -183 -98 -11 20 -14 2532 -3 2578 3 14 13 22
25 22 20 0 131 -83 191 -142 16 -15 33 -28 38 -28 5 0 26 -15 46 -34 21 -18
58 -48 83 -65 159 -110 252 -171 265 -171 8 0 18 -6 22 -13 8 -13 121 -70 243
-122 36 -15 86 -38 111 -51 26 -13 54 -24 62 -24 9 0 42 -11 74 -24 32 -13 78
-29 103 -36 25 -7 59 -18 75 -25 39 -17 99 -33 155 -40 24 -3 71 -15 104 -26
33 -10 96 -24 141 -29 129 -16 251 -36 263 -44 13 -8 210 -19 296 -17 57 1 96
23 150 83 35 38 40 52 53 133 10 61 14 167 14 327 l-1 236 38 30 38 31 251 0
c138 0 262 5 276 10 13 5 41 24 60 41 54 47 62 101 49 330 -10 166 -19 224
-53 365 -6 22 -15 66 -21 99 -5 32 -21 79 -34 104 -13 25 -24 55 -24 68 0 13
-11 49 -25 80 -14 31 -25 61 -25 66 0 6 -13 38 -29 72 -16 33 -32 72 -36 86
-4 14 -20 44 -36 68 -16 24 -29 46 -29 50 0 12 -81 165 -110 209 -15 22 -31
52 -35 65 -4 12 -20 40 -36 60 -16 20 -29 41 -29 46 0 5 -9 17 -21 28 -12 10
-27 31 -35 46 -7 14 -19 32 -27 40 -7 7 -44 54 -81 103 -38 50 -92 115 -121
145 -62 64 -75 87 -75 129 l0 31 1330 0 1329 0 6 -34z"/>
</g>
</svg>
