<svg xmlns="http://www.w3.org/2000/svg"  viewBox="0 0 64 64" width="700px" height="700px"><path d="M 38 2 A 1 1 0 0 0 37 3 L 37 6.2070312 A 10.866 10.866 0 0 0 36.023438 6.7753906 L 33.242188 5.1699219 A 1 1 0 0 0 31.875 5.5351562 L 27.875 12.464844 A 1 1 0 0 0 28.242188 13.830078 L 31.015625 15.429688 C 31.004625 15.623688 31 15.813047 31 15.998047 C 31 16.183047 30.999625 16.372406 31.015625 16.566406 L 28.242188 18.166016 A 1 1 0 0 0 27.875 19.535156 L 31.875 26.464844 A 1 1 0 0 0 33.242188 26.830078 L 36.023438 25.224609 A 10.866 10.866 0 0 0 37 25.792969 L 37 29 A 1 1 0 0 0 38 30 L 46 30 A 1 1 0 0 0 47 29 L 47 25.792969 A 10.866 10.866 0 0 0 47.976562 25.224609 L 50.757812 26.830078 A 1 1 0 0 0 52.125 26.464844 L 56.125 19.535156 A 1 1 0 0 0 55.757812 18.169922 L 52.984375 16.570312 C 53.000375 16.374312 53 16.185 53 16 C 53 15.815 52.995375 15.625641 52.984375 15.431641 L 55.757812 13.832031 A 1 1 0 1 0 54.757812 12.099609 L 51.433594 14.019531 A 1 1 0 0 0 50.939453 14.994141 A 8.48 8.48 0 0 1 50.939453 17.009766 A 1 1 0 0 0 51.433594 17.984375 L 53.892578 19.400391 L 50.892578 24.599609 L 48.427734 23.177734 A 1 1 0 0 0 47.332031 23.238281 A 8.983 8.983 0 0 1 45.599609 24.248047 A 1 1 0 0 0 45 25.164062 L 45 28 L 39 28 L 39 25.162109 A 1 1 0 0 0 38.400391 24.246094 A 8.983 8.983 0 0 1 36.667969 23.236328 A 1 1 0 0 0 35.572266 23.175781 L 33.107422 24.599609 L 30.107422 19.400391 L 32.566406 17.980469 A 1 1 0 0 0 33.060547 17.005859 A 8.48 8.48 0 0 1 33.060547 14.990234 A 1 1 0 0 0 32.566406 14.015625 L 30.107422 12.599609 L 33.107422 7.4003906 L 35.572266 8.8222656 A 1 1 0 0 0 36.667969 8.7617188 A 8.983 8.983 0 0 1 38.400391 7.7539062 A 1 1 0 0 0 39 6.8378906 L 39 4 L 45 4 L 45 6.8378906 A 1 1 0 0 0 45.599609 7.7539062 A 8.983 8.983 0 0 1 47.332031 8.7636719 A 1 1 0 0 0 48.427734 8.8242188 L 50.892578 7.4003906 L 52.447266 10.099609 A 1 1 0 0 0 54.179688 9.0996094 L 52.125 5.5351562 A 1 1 0 0 0 50.757812 5.1699219 L 47.976562 6.7753906 A 10.866 10.866 0 0 0 47 6.2070312 L 47 3 A 1 1 0 0 0 46 2 L 38 2 z M 21 7 A 1 1 0 0 0 20 8 L 20 12 L 8 12 A 5.006 5.006 0 0 0 3 17 L 3 55 A 5.006 5.006 0 0 0 8 60 L 38 60 A 1 1 0 0 0 39 59 L 39 48.914062 A 7.958 7.958 0 0 0 40.060547 48.992188 L 40.230469 48.992188 A 7.95 7.95 0 0 0 46.929688 45.099609 L 58.414062 56.585938 A 2 2 0 0 1 58.414062 59.414062 A 2.047 2.047 0 0 1 55.585938 59.414062 L 45.564453 49.394531 A 1 1 0 0 0 44.150391 50.808594 L 54.171875 60.828125 A 4 4 0 1 0 59.828125 55.171875 L 47.775391 43.119141 A 7.992 7.992 0 0 0 37.207031 33.527344 A 1 1 0 0 0 36.871094 35.183594 L 41.771484 39.884766 L 41.347656 42.25 L 39 42.771484 L 34.115234 38.082031 A 1 1 0 0 0 32.472656 38.492188 A 7.993 7.993 0 0 0 37 48.382812 L 37 50 L 8 50 A 4.948 4.948 0 0 0 5 51.025391 L 5 17 A 3 3 0 0 1 8 14 L 20 14 L 20 20 A 1 1 0 0 0 22 20 L 22 14 L 24.800781 14 A 1 1 0 0 0 24.800781 12 L 22 12 L 22 9 L 26 9 A 1 1 0 0 0 26 7 L 21 7 z M 42 11 A 5 5 0 1 0 47 16 A 5.006 5.006 0 0 0 42 11 z M 41.875 13.001953 A 3 3 0 0 1 45 16 A 3 3 0 0 1 42 19 A 3 3 0 0 1 41.875 13.001953 z M 19 23 A 1 1 0 0 0 18 24 L 18 25.587891 A 8.056 8.056 0 0 0 16.082031 26.697266 L 14.705078 25.900391 A 1 1 0 0 0 13.339844 26.265625 L 11.339844 29.730469 A 1 1 0 0 0 11.705078 31.095703 L 13.080078 31.890625 A 7.619 7.619 0 0 0 13.080078 34.105469 L 11.705078 34.900391 A 1 1 0 1 0 12.705078 36.632812 L 14.695312 35.482422 A 1 1 0 0 0 15.169922 34.382812 A 5.784 5.784 0 0 1 15.169922 31.607422 A 1 1 0 0 0 14.695312 30.507812 L 13.572266 29.857422 L 14.572266 28.126953 L 15.695312 28.775391 A 1 1 0 0 0 16.882812 28.636719 A 6.029 6.029 0 0 1 19.283203 27.244141 A 1 1 0 0 0 20 26.294922 L 20 25 L 22 25 L 22 26.294922 A 1 1 0 0 0 22.714844 27.251953 A 6.029 6.029 0 0 1 25.115234 28.644531 A 1 1 0 0 0 26.302734 28.783203 L 27.425781 28.134766 L 28.425781 29.865234 L 27.302734 30.515625 A 1 1 0 0 0 26.828125 31.615234 A 5.784 5.784 0 0 1 26.828125 34.390625 A 1 1 0 0 0 27.302734 35.490234 L 28.425781 36.140625 L 27.425781 37.871094 L 26.302734 37.222656 A 1 1 0 0 0 25.115234 37.361328 A 6.029 6.029 0 0 1 22.714844 38.753906 A 1 1 0 0 0 22 39.712891 L 22 41 L 20 41 L 20 39.705078 A 1 1 0 0 0 19.285156 38.748047 A 6.029 6.029 0 0 1 16.884766 37.355469 A 1 1 0 0 0 15.697266 37.216797 L 13.707031 38.365234 A 1 1 0 1 0 14.707031 40.097656 L 16.085938 39.298828 A 8.056 8.056 0 0 0 18 40.412109 L 18 42 A 1 1 0 0 0 19 43 L 23 43 A 1 1 0 0 0 24 42 L 24 40.412109 A 8.056 8.056 0 0 0 25.917969 39.302734 L 27.294922 40.103516 A 1 1 0 0 0 28.660156 39.736328 L 30.660156 36.273438 A 1 1 0 0 0 30.294922 34.90625 L 28.919922 34.113281 A 7.619 7.619 0 0 0 28.919922 31.896484 L 30.294922 31.103516 A 1 1 0 0 0 30.660156 29.736328 L 28.660156 26.273438 A 1 1 0 0 0 27.294922 25.90625 L 25.917969 26.701172 A 8.056 8.056 0 0 0 24 25.587891 L 24 24 A 1 1 0 0 0 23 23 L 19 23 z M 55.970703 25 A 1 1 0 0 0 55 26 L 55 47 A 1 1 0 0 0 57 47 L 57 26 A 1 1 0 0 0 55.970703 25 z M 20.882812 29.001953 A 4 4 0 0 0 21 37 A 4 4 0 0 0 25 33 A 4 4 0 0 0 20.882812 29.001953 z M 21.058594 31 A 2 2 0 0 1 21 35 A 2 2 0 0 1 19 33 A 2 2 0 0 1 21.058594 31 z M 40.185547 34.990234 A 6 6 0 0 1 40.185547 46.990234 L 40.189453 46.992188 A 6.06 6.06 0 0 1 35.910156 45.320312 A 5.937 5.937 0 0 1 34.070312 40.810547 L 38 44.585938 A 1.007 1.007 0 0 0 38.908203 44.841797 L 42.429688 44.060547 A 1 1 0 0 0 43.197266 43.261719 L 43.830078 39.712891 A 1 1 0 0 0 43.539062 38.8125 L 39.585938 35.019531 A 6 6 0 0 1 40.185547 34.990234 z M 18 46 A 1 1 0 0 0 18 48 L 24 48 A 1 1 0 0 0 24 46 L 18 46 z M 8 52 L 37 52 L 37 58 L 8 58 A 3 3 0 0 1 8 52 z"/></svg>