<svg xmlns="http://www.w3.org/2000/svg"  viewBox="0 0 16 16" width="128px" height="128px"><path d="M 14.208984 1.0839844 L 12.230469 3.0625 L 11.589844 2.421875 C 11.31121 2.1432417 10.941226 2.0039062 10.572266 2.0039062 C 10.203306 2.0039063 9.8352739 2.1432417 9.5566406 2.421875 A 0.50005 0.50005 0 0 0 9.5488281 2.4296875 L 8.1386719 3.9042969 A 0.50005 0.50005 0 0 0 8 4.25 L 8 5.2871094 L 5.1738281 8 L 4.125 8 A 0.50005 0.50005 0 0 0 3.7636719 8.1542969 L 2.421875 9.5566406 C 1.8646084 10.113907 1.8646084 11.032577 2.421875 11.589844 L 3.0625 12.230469 L 1.0839844 14.208984 L 1.7910156 14.916016 L 3.7695312 12.9375 L 4.4101562 13.578125 C 4.9674229 14.135392 5.8860928 14.135392 6.4433594 13.578125 L 7.8457031 12.236328 A 0.50005 0.50005 0 0 0 8 11.875 L 8 10.707031 L 10.707031 8 L 11.875 8 A 0.50005 0.50005 0 0 0 12.236328 7.8457031 L 13.578125 6.4433594 C 14.135392 5.8860928 14.135392 4.9674228 13.578125 4.4101562 L 12.9375 3.7695312 L 14.916016 1.7910156 L 14.208984 1.0839844 z M 10.572266 2.9980469 C 10.683367 2.9980469 10.795446 3.0415396 10.882812 3.1289062 L 12.871094 5.1171875 C 13.045827 5.2919209 13.045827 5.5615947 12.871094 5.7363281 A 0.50005 0.50005 0 0 0 12.863281 5.7441406 L 11.662109 7 L 10.5 7 A 0.50005 0.50005 0 0 0 10.146484 7.1464844 L 7.1464844 10.146484 A 0.50005 0.50005 0 0 0 7 10.5 L 7 11.662109 L 5.7441406 12.863281 A 0.50005 0.50005 0 0 0 5.7363281 12.871094 C 5.5615947 13.045827 5.2919209 13.045827 5.1171875 12.871094 L 3.1289062 10.882812 C 2.9541728 10.70808 2.9541729 10.438405 3.1289062 10.263672 A 0.50005 0.50005 0 0 0 3.1367188 10.255859 L 4.3378906 9 L 5.375 9 A 0.50005 0.50005 0 0 0 5.7207031 8.8613281 L 8.8457031 5.8613281 A 0.50005 0.50005 0 0 0 9 5.5 L 9 4.4511719 L 10.263672 3.1289062 C 10.351038 3.0415395 10.461164 2.9980469 10.572266 2.9980469 z"/></svg>