<?xml version="1.0" standalone="no"?>
<!DOCTYPE svg PUBLIC "-//W3C//DTD SVG 20010904//EN"
 "http://www.w3.org/TR/2001/REC-SVG-20010904/DTD/svg10.dtd">
<svg version="1.0" xmlns="http://www.w3.org/2000/svg"
 width="800.000000pt" height="981.000000pt" viewBox="0 0 800.000000 981.000000"
 preserveAspectRatio="xMidYMid meet">
<metadata>
Created by potrace 1.10, written by Peter Selinger 2001-2011
</metadata>
<g transform="translate(0.000000,981.000000) scale(0.100000,-0.100000)"
fill="#000000" stroke="none">
<path d="M23 8553 c3 -1219 4 -1262 24 -1399 113 -752 393 -1344 902 -1909
309 -343 740 -674 1148 -883 l132 -67 98 48 c140 69 363 204 510 309 754 536
1258 1219 1488 2018 67 232 108 481 124 757 11 179 27 2317 18 2354 l-6 24
-2221 3 -2221 3 4 -1258z m3327 1221 l1105 -4 0 -115 c0 -63 -1 -339 -3 -612
l-2 -498 -82 -95 c-62 -73 -408 -484 -553 -657 -14 -17 -26 -22 -38 -17 -10 3
-122 124 -250 268 -388 437 -446 496 -490 496 -40 0 -99 -55 -370 -349 -151
-163 -287 -307 -302 -321 -26 -24 -27 -24 -40 -6 -12 15 -17 17 -29 7 -8 -7
-16 -22 -18 -33 -2 -16 -39 16 -173 153 -328 337 -545 549 -561 549 -9 0 -28
-9 -43 -20 -33 -23 -335 -345 -557 -592 l-159 -178 -90 97 c-49 53 -217 232
-372 397 l-283 300 0 624 0 624 1103 -7 c606 -3 1599 -8 2207 -11z m-1438
-1615 c309 -314 359 -361 372 -350 9 8 16 20 16 28 0 13 3 13 15 3 28 -23 67
13 383 357 255 277 304 323 340 323 32 0 124 -93 424 -430 265 -298 309 -343
331 -338 8 1 75 75 149 163 269 322 305 363 393 467 50 58 92 104 94 102 9 -8
0 -1056 -10 -1159 -59 -640 -263 -1194 -631 -1707 -355 -497 -902 -964 -1458
-1244 l-95 -47 -114 59 c-537 278 -1052 714 -1404 1189 -339 458 -553 973
-637 1534 -30 208 -41 479 -38 959 l3 443 351 -373 c194 -205 360 -381 371
-391 19 -17 22 -16 70 35 28 29 134 145 235 258 247 275 447 480 467 480 9 0
177 -162 373 -361z"/>
<path d="M963 9685 c-62 -19 -125 -59 -167 -106 -40 -44 -75 -111 -76 -144 0
-17 -3 -15 -19 10 -25 42 -101 109 -150 134 -48 25 -152 51 -201 50 -29 0 -31
-2 -15 -9 118 -52 121 -53 95 -58 -22 -4 -18 -7 30 -30 48 -22 52 -26 30 -30
-22 -4 -20 -7 25 -27 41 -19 46 -24 25 -25 -21 -1 -18 -4 20 -22 35 -17 41
-22 25 -26 -16 -4 -14 -7 15 -22 l35 -19 -62 1 c-79 0 -152 -22 -228 -67 -58
-35 -139 -105 -131 -113 2 -2 27 9 56 23 50 26 76 27 52 3 -19 -19 -14 -33 6
-16 9 9 36 25 60 37 42 21 43 21 33 2 -17 -31 -14 -31 34 -4 25 13 45 29 45
34 0 11 -2 11 -37 -1 l-28 -10 31 27 c17 16 39 33 50 40 10 6 13 12 7 12 -7 1
-30 -14 -50 -33 -21 -18 -51 -36 -68 -40 -16 -3 -40 -9 -52 -11 -38 -9 -26 12
22 40 51 31 134 55 186 55 20 0 51 3 68 6 30 6 31 8 15 25 -16 18 -16 19 0 19
9 0 31 -7 49 -15 29 -15 30 -15 12 0 -11 8 -36 20 -56 25 -20 6 -43 18 -50 27
-13 14 -11 16 11 10 66 -15 105 -36 118 -64 12 -27 13 -27 8 -2 -5 22 0 29 33
47 21 12 42 22 45 22 7 0 -12 -37 -33 -62 -9 -11 -10 -18 -3 -18 6 0 14 5 17
10 8 13 152 13 159 1 9 -14 -14 -19 -84 -16 -36 1 -48 1 -27 -2 20 -2 35 -8
32 -14 -4 -5 9 -9 29 -9 19 0 43 -3 53 -6 16 -5 16 -4 -2 11 -19 15 -17 16 38
10 60 -5 71 -1 35 16 -17 7 -6 8 42 5 63 -4 64 -4 37 11 -38 19 -32 22 26 14
50 -8 61 -1 25 17 -19 9 -10 11 52 12 l75 2 -35 15 c-105 46 -260 38 -380 -18
l-65 -30 29 29 c25 27 26 31 9 34 -15 3 -12 7 15 23 26 16 29 21 16 25 -14 5
-10 11 19 29 41 25 47 36 17 28 -35 -9 -22 11 25 39 51 29 56 37 20 28 -39
-10 -30 1 32 40 60 38 51 45 -24 21z m-43 -54 c0 -4 -17 -15 -37 -24 -34 -14
-35 -15 -8 -11 17 3 25 2 19 -3 -6 -4 -13 -16 -17 -25 -3 -10 -14 -18 -24 -18
-10 -1 -29 -8 -43 -16 -17 -10 -18 -13 -5 -9 55 19 58 19 47 -2 -6 -11 -29
-28 -51 -38 -23 -10 -41 -22 -41 -26 0 -5 15 0 33 11 17 11 35 20 39 20 13 0
-37 -46 -74 -69 l-38 -22 35 68 c40 79 53 97 78 106 10 4 16 11 12 17 -3 5 11
18 32 29 45 24 43 23 43 12z m-395 -66 l30 -14 -35 6 c-19 3 -42 9 -50 14 -26
15 22 10 55 -6z m39 -26 c-2 -4 12 -14 31 -23 28 -13 89 -75 82 -82 -6 -6 -96
24 -117 39 l-24 17 26 0 c15 0 39 -5 55 -11 19 -7 25 -7 18 0 -6 6 -31 15 -56
19 -25 5 -55 18 -67 30 l-22 22 39 -3 c22 -1 37 -5 35 -8z m569 -106 c-7 -2
-21 -2 -30 0 -10 3 -4 5 12 5 17 0 24 -2 18 -5z m-38 -12 c39 -16 -27 -20 -95
-6 l-65 13 70 0 c39 0 79 -3 90 -7z m-92 -17 c19 -4 25 -10 19 -16 -5 -5 -41
-6 -88 -2 -48 4 -71 10 -59 14 27 9 94 12 128 4z"/>
<path d="M4000 9686 c-76 -22 -116 -42 -161 -83 -51 -46 -99 -118 -99 -149 0
-13 -4 -26 -10 -29 -5 -3 -10 -2 -10 3 0 6 -20 32 -44 59 -71 79 -192 133
-296 132 l-45 0 60 -25 c67 -27 90 -44 51 -37 -15 3 -26 1 -26 -6 0 -6 7 -11
15 -11 18 0 95 -37 95 -46 0 -3 -9 -3 -19 1 -11 3 -22 2 -25 -3 -3 -5 12 -14
34 -21 43 -13 62 -31 33 -31 -10 0 2 -10 27 -22 43 -20 44 -21 20 -28 -24 -6
-24 -7 7 -14 49 -11 52 -28 4 -20 -99 16 -264 -51 -353 -144 -24 -24 -38 -42
-33 -40 88 39 114 54 118 69 3 10 24 27 48 39 l44 21 -25 -21 -25 -21 35 17
c18 9 40 23 47 30 13 13 33 18 118 28 34 4 37 3 21 -7 -11 -7 -33 -24 -50 -38
-17 -14 -38 -27 -46 -27 -8 -1 -36 -4 -61 -6 -26 -2 -52 -7 -59 -11 -9 -5 -11
-4 -6 3 4 7 2 12 -3 12 -10 0 -62 -72 -56 -78 1 -2 24 11 51 27 52 34 74 40
54 16 -22 -27 -5 -26 43 1 44 24 61 22 35 -4 -18 -18 -2 -15 42 8 22 11 42 20
46 20 4 0 -1 -9 -11 -20 -19 -21 -7 -28 13 -8 7 7 12 9 12 4 0 -4 -13 -18 -29
-32 -68 -57 -124 -186 -119 -271 l3 -48 19 58 c19 56 42 81 30 32 -4 -15 -2
-25 5 -25 6 0 11 7 11 15 0 17 37 95 45 95 3 0 3 -11 -1 -25 -11 -45 12 -26
30 25 18 49 45 85 31 41 -11 -36 9 -23 33 21 24 44 22 59 -4 38 -14 -12 -15
-10 -10 26 5 28 4 34 -3 19 -5 -11 -10 -28 -10 -39 -1 -10 -13 -32 -28 -50
l-26 -31 7 38 c4 21 9 46 12 55 3 10 0 8 -5 -3 -6 -11 -15 -39 -21 -62 -6 -24
-15 -43 -20 -43 -5 0 -16 -12 -25 -27 l-15 -28 5 30 c5 29 5 28 -9 -5 -8 -19
-15 -28 -15 -19 -1 26 26 84 31 68 3 -8 9 -2 13 16 14 51 90 137 147 167 29
15 47 28 39 28 -8 0 -38 -14 -68 -30 -61 -35 -71 -24 -15 16 69 51 51 52 -21
1 -16 -10 -31 -17 -34 -14 -3 3 -16 2 -29 -3 -41 -16 -17 16 37 50 56 34 68
36 110 14 17 -8 33 -14 35 -11 3 2 -18 14 -45 25 -27 12 -51 28 -55 37 -7 19
-4 19 41 0 20 -8 38 -13 40 -11 2 2 -17 12 -44 22 -53 19 -73 32 -73 45 0 5
22 0 49 -10 28 -10 52 -16 55 -13 3 3 13 -10 21 -29 9 -19 14 -25 12 -14 -3
22 24 48 63 60 20 6 23 5 13 -6 -7 -7 -13 -19 -13 -27 0 -8 -8 -21 -17 -28
-15 -12 -12 -12 16 0 19 7 53 12 75 10 23 -2 35 -1 29 2 -30 14 -8 24 52 24
36 0 65 -4 65 -9 0 -14 -21 -19 -60 -15 -29 3 -30 2 -10 -4 22 -7 23 -9 7 -15
-10 -4 -51 -8 -90 -9 -70 -1 -70 -1 -22 -8 41 -5 46 -7 25 -13 -14 -4 -43 -8
-65 -10 -36 -3 -34 -4 11 -5 32 -1 56 -8 64 -17 7 -8 17 -15 23 -15 6 0 29 -7
52 -16 30 -12 45 -26 63 -60 28 -56 28 -63 -1 -36 -13 12 -26 19 -30 16 -3 -3
-15 13 -27 36 -12 23 -24 40 -27 37 -3 -3 2 -16 11 -29 22 -30 20 -45 -2 -25
-10 10 -22 17 -27 17 -5 0 -22 15 -38 33 -24 27 -25 27 -8 3 12 -16 21 -33 21
-38 0 -16 -34 -4 -53 19 -10 12 -32 32 -50 44 -27 19 -26 15 14 -27 25 -27 51
-60 57 -74 7 -14 23 -43 36 -65 13 -22 27 -63 32 -90 6 -46 6 -49 -9 -36 -10
7 -17 21 -17 30 0 10 -11 28 -25 41 -14 13 -25 29 -25 37 0 7 -15 30 -33 50
-19 21 -37 45 -41 53 -4 8 -13 26 -21 40 -15 25 -15 25 -15 3 0 -13 -4 -23 -8
-23 -5 0 -14 -10 -21 -22 -10 -20 -11 -18 -7 17 l5 40 -14 -43 c-8 -25 -11
-52 -6 -64 7 -19 8 -19 14 -4 9 22 27 11 27 -15 0 -21 -11 -24 -43 -8 -21 9
-21 9 2 -10 l23 -21 -3 -453 -4 -452 35 0 35 0 0 458 c0 359 3 457 13 457 6 0
12 10 13 23 1 20 2 19 14 -8 8 -16 17 -50 21 -75 l7 -45 12 29 13 30 11 -53
c6 -28 11 -60 12 -69 0 -11 6 -6 14 12 l13 30 5 -30 c4 -16 10 -47 13 -69 7
-37 8 -38 15 -15 4 14 7 59 8 100 1 63 -4 85 -28 136 -16 34 -34 65 -40 68 -6
4 -16 17 -22 29 -9 18 -5 16 21 -8 27 -25 31 -26 21 -7 -17 32 -2 27 42 -15
36 -35 39 -36 33 -13 -6 21 -1 19 32 -17 43 -46 59 -55 42 -23 -21 40 9 19 37
-25 31 -49 48 -59 33 -20 -17 45 8 27 40 -27 28 -50 30 -51 30 -23 0 44 -43
128 -88 173 -48 48 -117 89 -186 113 l-51 18 50 1 c38 1 45 4 30 10 -14 6 -3
9 40 10 58 1 59 1 35 16 -23 14 -21 14 40 9 63 -5 64 -5 35 10 -29 15 -29 15
30 10 56 -5 58 -4 35 9 -22 13 -23 15 -7 22 10 3 40 4 67 2 28 -3 50 -2 50 2
0 15 -119 40 -191 40 -87 0 -175 -21 -239 -56 l-45 -25 28 28 c31 34 34 45 10
37 -14 -5 -13 -2 3 13 12 10 30 24 40 31 18 12 18 13 -4 8 -29 -6 -19 10 21
31 32 17 32 17 8 23 -23 5 -21 7 25 39 45 30 46 32 19 28 l-30 -5 30 24 c16
13 42 29 57 35 16 6 28 15 28 20 0 5 -1 9 -2 8 -2 0 -23 -6 -48 -13z m-84 -71
c-11 -8 -25 -15 -30 -15 -6 0 -2 7 8 15 11 8 25 15 30 15 6 0 2 -7 -8 -15z
m-8 -29 c-10 -7 -18 -17 -18 -22 0 -5 -21 -17 -46 -28 -25 -10 -43 -20 -41
-22 2 -2 21 3 41 11 l38 16 -15 -22 c-16 -21 -97 -65 -97 -51 0 25 54 89 91
108 48 25 74 31 47 10z m-361 -32 c-1 0 -15 -4 -32 -8 -22 -5 -26 -4 -15 4 13
8 12 10 -3 10 -10 0 -16 4 -13 9 4 5 18 5 36 -2 16 -6 28 -12 27 -13z m55 -39
c50 -20 58 -36 16 -30 -32 5 -32 4 3 -6 21 -6 48 -22 60 -36 17 -19 19 -24 8
-20 -10 3 -36 11 -60 19 -24 7 -51 20 -61 30 -16 16 -16 17 0 21 14 4 13 5 -3
6 -11 0 -26 11 -33 22 -13 20 -12 21 10 16 13 -4 40 -13 60 -22z m238 -42 c0
-16 -16 -30 -57 -51 -62 -31 -50 5 12 40 34 19 45 21 45 11z m310 -43 c12 -8
10 -10 -10 -9 -14 0 -34 4 -45 9 -17 7 -16 9 10 9 17 0 37 -4 45 -9z m-45 -22
c7 -7 -8 -9 -45 -4 -30 3 -66 6 -80 7 -22 0 -23 1 -5 8 25 10 117 2 130 -11z
m-3 -252 c22 -39 23 -58 2 -28 -8 12 -21 22 -28 22 -6 0 -22 21 -35 46 l-22
47 33 -28 c18 -15 41 -41 50 -59z m-328 38 c8 -21 -1 -34 -25 -34 -21 0 -25
20 -7 38 16 16 25 15 32 -4z m16 -60 c0 -19 -4 -25 -17 -22 -20 4 -25 29 -8
40 18 13 25 9 25 -18z m360 -27 c0 -16 -18 3 -23 25 -6 22 -5 22 8 4 8 -11 15
-24 15 -29z m-383 -20 c-6 -20 -27 -19 -27 2 0 14 5 19 15 14 9 -3 14 -10 12
-16z m0 -42 c0 -8 -6 -15 -12 -15 -6 0 -12 7 -12 15 0 8 6 15 12 15 6 0 12 -7
12 -15z m3 -50 c0 -8 -7 -15 -15 -15 -8 0 -15 7 -15 15 0 8 7 15 15 15 8 0 15
-7 15 -15z m0 -50 c0 -8 -7 -15 -15 -15 -8 0 -15 7 -15 15 0 8 7 15 15 15 8 0
15 -7 15 -15z m-4 -40 c-3 -20 -20 -20 -24 -1 -2 9 3 16 11 16 9 0 14 -7 13
-15z m1 -50 c0 -8 -6 -15 -14 -15 -7 0 -13 7 -13 15 0 8 6 15 13 15 8 0 14 -7
14 -15z m0 -50 c0 -8 -8 -15 -17 -15 -9 0 -17 7 -17 15 0 8 8 15 17 15 9 0 17
-7 17 -15z m3 -46 c0 -14 -5 -19 -17 -17 -24 4 -26 38 -2 38 13 0 19 -7 19
-21z m-2 -46 c-2 -10 -10 -18 -17 -18 -8 0 -15 8 -17 18 -1 11 4 17 18 17 13
0 18 -6 16 -17z m2 -48 c0 -8 -9 -15 -20 -15 -11 0 -20 7 -20 15 0 8 9 15 20
15 11 0 20 -7 20 -15z m0 -45 c0 -13 -7 -20 -20 -20 -13 0 -20 7 -20 20 0 13
7 20 20 20 13 0 20 -7 20 -20z m-2 -47 c-2 -10 -10 -18 -18 -18 -8 0 -16 8
-18 18 -2 12 3 17 18 17 15 0 20 -5 18 -17z m2 -48 c0 -8 -9 -15 -20 -15 -11
0 -20 7 -20 15 0 8 9 15 20 15 11 0 20 -7 20 -15z m0 -45 c0 -13 -7 -20 -20
-20 -13 0 -20 7 -20 20 0 13 7 20 20 20 13 0 20 -7 20 -20z m0 -45 c0 -8 -9
-15 -20 -15 -11 0 -20 7 -20 15 0 8 9 15 20 15 11 0 20 -7 20 -15z m0 -50 c0
-8 -9 -15 -20 -15 -11 0 -20 7 -20 15 0 8 9 15 20 15 11 0 20 -7 20 -15z m-2
-42 c-2 -10 -10 -18 -18 -18 -8 0 -16 8 -18 18 -2 12 3 17 18 17 15 0 20 -5
18 -17z m2 -48 c0 -9 -9 -15 -23 -15 -14 0 -24 6 -24 15 0 9 10 15 24 15 14 0
23 -6 23 -15z m0 -40 c0 -9 -9 -15 -25 -15 -16 0 -25 6 -25 15 0 9 9 15 25 15
16 0 25 -6 25 -15z m0 -35 c0 -5 -9 -10 -20 -10 -11 0 -20 5 -20 10 0 6 9 10
20 10 11 0 20 -4 20 -10z"/>
<path d="M2095 9665 c-23 -8 -57 -33 -80 -58 -36 -40 -43 -43 -70 -36 -71 21
-105 -6 -170 -136 -62 -122 -62 -124 34 -300 18 -34 21 -53 19 -130 -3 -88 -2
-92 31 -143 18 -29 46 -59 62 -67 27 -14 30 -14 64 16 27 24 35 27 35 15 0 -9
11 -27 23 -40 22 -22 24 -34 30 -171 9 -199 34 -252 128 -270 19 -3 46 -2 61
4 26 10 27 9 39 -44 17 -76 -10 -167 -36 -124 -4 5 1 19 10 29 19 21 14 50 -8
50 -7 0 -24 11 -37 25 -36 38 -57 32 -71 -17 -29 -104 -7 -196 52 -217 68 -23
125 -7 172 48 27 33 67 182 67 251 0 25 9 52 23 74 21 30 25 50 31 177 4 78
12 151 17 162 6 11 9 32 7 48 -5 35 -1 36 24 4 32 -40 71 -34 106 18 37 56 82
172 87 226 3 30 16 62 42 100 l38 56 0 120 c0 105 -3 125 -23 162 -12 23 -30
47 -40 52 -35 19 -112 9 -112 -14 0 -8 -4 -15 -10 -15 -5 0 -10 6 -10 14 0 20
-102 113 -145 130 -49 21 -110 20 -145 -1 -26 -15 -31 -15 -69 0 -50 20 -122
21 -176 2z m410 -40 c53 -31 95 -75 72 -75 -9 0 -22 -9 -29 -21 -7 -11 -43
-36 -80 -54 -85 -42 -148 -45 -227 -9 -43 19 -60 22 -87 15 -36 -10 -54 -1
-111 52 l-32 30 20 29 c11 15 33 35 49 43 39 20 162 20 200 0 28 -14 33 -14
67 5 46 25 100 20 158 -15z m-460 -124 c50 -46 70 -54 110 -42 23 6 41 3 77
-15 75 -38 153 -34 250 13 45 21 78 44 81 55 6 22 45 24 53 3 4 -8 14 -15 24
-15 10 0 20 7 24 15 8 22 79 20 99 -3 35 -38 50 -109 44 -202 -5 -80 -9 -92
-46 -150 -30 -45 -41 -74 -41 -101 0 -67 -77 -233 -113 -245 -26 -8 -73 40
-82 84 -6 30 -5 32 20 32 14 0 37 8 51 17 26 16 26 18 23 122 -4 101 -2 108
23 146 37 55 44 91 24 114 -17 18 -13 51 6 51 5 0 12 -9 15 -20 7 -25 23 -26
23 -2 0 45 -54 57 -72 16 -9 -20 -9 -30 0 -45 19 -30 14 -63 -17 -105 -29 -39
-30 -40 -24 -142 6 -93 4 -104 -13 -117 -10 -8 -32 -15 -47 -15 -29 0 -53 -35
-37 -55 5 -6 8 -35 7 -65 -2 -53 -3 -55 -29 -55 -25 -1 -28 3 -28 33 0 54 -21
110 -47 128 -35 23 -40 10 -9 -26 14 -17 26 -37 26 -45 0 -19 -43 -27 -102
-19 -41 6 -50 4 -46 -7 6 -18 71 -30 121 -23 33 5 37 4 37 -17 0 -21 -2 -22
-81 -16 -61 5 -80 4 -76 -6 5 -15 48 -25 107 -24 l45 0 -45 7 -45 7 49 1 48 2
-7 -37 c-4 -21 -8 -39 -10 -41 -7 -7 -72 -5 -97 2 -19 6 -28 4 -28 -3 0 -17
61 -40 91 -34 26 5 26 5 25 -64 -1 -37 -5 -71 -11 -75 -5 -5 -22 -5 -37 -2
-21 4 -28 2 -28 -10 0 -10 12 -16 37 -18 31 -3 38 -8 44 -32 8 -28 7 -28 -27
-22 -20 4 -34 3 -34 -3 0 -14 34 -31 59 -31 28 0 28 -45 0 -168 -17 -74 -28
-100 -53 -127 -55 -58 -142 -56 -174 5 -15 28 -11 155 5 171 6 6 18 0 33 -16
13 -14 30 -25 38 -25 13 0 12 -3 -1 -18 -21 -23 -22 -46 -2 -62 40 -33 82 35
72 119 -6 51 -81 252 -129 345 l-30 59 12 92 c8 56 10 97 4 107 -12 20 -82 98
-89 98 -16 0 0 -34 28 -62 41 -40 48 -59 40 -99 -4 -23 -10 -29 -23 -26 -9 2
-24 0 -33 -5 -22 -12 -54 6 -63 34 -3 13 -20 51 -36 85 -43 89 -46 146 -14
276 15 60 24 116 21 126 -9 29 -40 52 -59 45 -22 -8 -16 -38 8 -42 13 -3 16 0
10 10 -7 11 -5 11 9 0 18 -15 17 -27 -14 -151 -29 -114 -23 -182 25 -292 5
-11 -1 -26 -16 -44 -32 -37 -58 -28 -99 36 -31 49 -32 54 -31 147 l2 97 -45
74 c-64 106 -65 125 -20 219 21 42 49 92 63 111 25 34 25 34 90 28 57 -6 69
-11 107 -46z m268 -668 c-7 -2 -19 -2 -25 0 -7 3 -2 5 12 5 14 0 19 -2 13 -5z
m110 0 c-7 -2 -19 -2 -25 0 -7 3 -2 5 12 5 14 0 19 -2 13 -5z m-50 -10 c-7 -2
-19 -2 -25 0 -7 3 -2 5 12 5 14 0 19 -2 13 -5z m-60 -50 c-7 -2 -19 -2 -25 0
-7 3 -2 5 12 5 14 0 19 -2 13 -5z m-161 -59 c-2 -32 1 -61 7 -67 6 -6 11 -45
11 -87 0 -81 23 -168 46 -177 26 -10 14 -23 -13 -17 -37 9 -80 50 -92 88 -5
17 -12 92 -15 168 -7 144 -6 145 39 147 18 1 20 -4 17 -55z m328 -99 c0 -105
-4 -143 -16 -167 -24 -47 -34 -19 -34 99 0 118 15 203 36 203 11 0 14 -25 14
-135z m-145 65 c13 -6 15 -9 5 -9 -8 0 -22 4 -30 9 -18 12 -2 12 25 0z m72 -6
c-3 -3 -12 -4 -19 -1 -8 3 -5 6 6 6 11 1 17 -2 13 -5z m-163 -209 c19 -49 33
-91 31 -93 -1 -2 -12 3 -24 10 -32 20 -55 77 -58 148 -3 73 -3 72 51 -65z
m173 -51 c-3 -3 -12 -4 -19 -1 -8 3 -5 6 6 6 11 1 17 -2 13 -5z"/>
<path d="M2035 9131 c-3 -5 3 -12 13 -15 14 -5 17 -13 14 -37 -5 -36 31 -82
59 -74 11 4 18 -1 22 -16 7 -26 33 -20 29 7 -7 36 -55 106 -86 125 -35 21 -42
23 -51 10z m80 -71 c12 -24 13 -30 2 -30 -19 0 -37 21 -37 42 0 28 18 21 35
-12z"/>
<path d="M2512 9110 c-36 -22 -94 -106 -90 -130 4 -21 22 -15 26 9 3 16 9 19
32 15 23 -5 31 -1 45 20 11 16 15 35 11 51 -5 18 -2 25 9 25 8 0 15 7 15 15 0
20 -8 19 -48 -5z m-1 -69 c-7 -12 -18 -21 -26 -21 -19 0 -19 5 1 36 21 30 42
17 25 -15z"/>
<path d="M690 9335 c14 -8 30 -14 35 -14 6 0 -1 6 -15 14 -14 8 -29 14 -35 14
-5 0 1 -6 15 -14z"/>
<path d="M560 9308 c-18 -13 -42 -38 -52 -56 l-18 -33 22 6 c13 4 33 13 46 21
24 16 30 6 10 -15 -11 -11 -9 -12 10 -6 18 5 13 -4 -23 -40 -63 -62 -97 -139
-102 -229 l-4 -71 25 60 c22 56 24 58 28 30 3 -29 4 -28 28 25 22 49 25 52 31
30 6 -23 9 -20 30 30 21 48 24 51 29 30 6 -23 8 -21 27 21 11 26 26 50 32 53
14 9 14 -7 0 -21 -14 -14 -3 -33 17 -33 14 0 14 -47 8 -397 -4 -219 -7 -425
-8 -458 l-1 -60 40 0 40 0 -3 458 c-3 398 -2 457 11 457 21 0 29 40 11 57 -8
8 -14 20 -14 27 0 8 -7 19 -15 26 -8 7 -15 22 -16 34 -1 21 -1 21 -7 0 -4 -11
-17 -33 -29 -50 l-22 -29 9 35 c12 43 12 43 0 35 -5 -3 -10 -17 -10 -30 0 -14
-14 -38 -31 -56 -22 -23 -30 -27 -26 -13 14 46 15 75 2 33 -9 -25 -25 -55 -37
-65 l-21 -19 7 35 c4 19 9 42 10 50 4 36 32 64 89 91 34 15 55 28 47 28 -8 1
-39 -13 -69 -29 -30 -17 -59 -30 -64 -30 -18 0 33 48 64 61 16 6 27 14 25 17
-3 2 -26 -8 -53 -23 -54 -33 -112 -43 -91 -17 7 8 27 23 43 34 17 10 25 18 19
18 -6 0 -26 -10 -44 -22z m194 -135 c-9 -6 -21 -10 -27 -9 -7 2 -9 1 -4 -1 15
-9 7 -43 -11 -43 -32 0 -32 11 0 58 29 42 32 44 45 26 12 -16 11 -20 -3 -31z
m-184 -53 c-7 -28 -18 -54 -26 -57 -7 -3 -16 -14 -20 -25 -3 -11 -8 -17 -11
-14 -13 12 53 163 66 151 2 -2 -2 -27 -9 -55z m208 23 c-3 -30 -25 -42 -34
-19 -6 17 11 46 28 46 5 0 8 -12 6 -27z m-20 -51 c2 -7 -3 -12 -12 -12 -9 0
-16 7 -16 16 0 17 22 14 28 -4z m-254 -46 c-3 -15 -8 -25 -11 -23 -2 3 -1 17
3 31 3 15 8 25 11 23 2 -3 1 -17 -3 -31z m256 -1 c0 -8 -7 -15 -15 -15 -8 0
-15 7 -15 15 0 8 7 15 15 15 8 0 15 -7 15 -15z m-3 -40 c0 -8 -6 -15 -13 -15
-6 0 -14 7 -18 15 -3 10 1 15 13 15 10 0 18 -7 18 -15z m0 -50 c0 -8 -8 -15
-17 -15 -9 0 -17 7 -17 15 0 8 8 15 17 15 9 0 17 -7 17 -15z m0 -50 c0 -8 -8
-15 -17 -15 -9 0 -17 7 -17 15 0 8 8 15 17 15 9 0 17 -7 17 -15z m3 -39 c0
-21 -21 -31 -31 -15 -14 22 -11 29 11 29 11 0 20 -6 20 -14z m0 -51 c0 -8 -9
-15 -20 -15 -11 0 -20 7 -20 15 0 8 9 15 20 15 11 0 20 -7 20 -15z m0 -50 c0
-8 -9 -15 -20 -15 -11 0 -20 7 -20 15 0 8 9 15 20 15 11 0 20 -7 20 -15z m0
-45 c0 -13 -7 -20 -20 -20 -13 0 -20 7 -20 20 0 13 7 20 20 20 13 0 20 -7 20
-20z m-2 -47 c-5 -26 -38 -29 -38 -4 0 15 6 21 21 21 14 0 19 -5 17 -17z m2
-48 c0 -8 -9 -15 -20 -15 -11 0 -20 7 -20 15 0 8 9 15 20 15 11 0 20 -7 20
-15z m0 -45 c0 -13 -7 -20 -20 -20 -13 0 -20 7 -20 20 0 13 7 20 20 20 13 0
20 -7 20 -20z m-3 -50 c1 -14 -4 -20 -18 -20 -12 0 -19 7 -19 20 0 13 7 20 18
20 11 0 18 -8 19 -20z m3 -45 c0 -9 -9 -15 -25 -15 -18 0 -23 4 -19 15 4 8 15
15 25 15 10 0 19 -7 19 -15z m0 -50 c0 -9 -9 -15 -25 -15 -18 0 -23 4 -19 15
4 8 15 15 25 15 10 0 19 -7 19 -15z m-4 -42 c-3 -16 -9 -19 -34 -14 -20 3 -7
31 14 31 15 0 21 -5 20 -17z m1 -48 c0 -9 -9 -15 -22 -15 -13 0 -22 6 -22 15
0 9 9 15 22 15 13 0 22 -6 22 -15z m3 -39 c0 -16 -19 -25 -37 -18 -23 8 -14
32 12 32 15 0 25 -6 25 -14z m-3 -51 c0 -9 -10 -15 -24 -15 -14 0 -23 6 -23
15 0 9 9 15 23 15 14 0 24 -6 24 -15z m-2 -35 c-3 -5 -12 -10 -20 -10 -8 0
-17 5 -20 10 -4 6 5 10 20 10 15 0 24 -4 20 -10z"/>
<path d="M769 9314 c-11 -13 -6 -21 34 -56 26 -22 47 -46 47 -54 0 -8 11 -31
25 -52 29 -44 55 -115 55 -149 0 -22 -2 -24 -15 -13 -8 7 -15 21 -15 31 0 11
-9 27 -21 37 -11 9 -28 34 -36 55 -25 60 -34 29 -13 -43 13 -44 19 -56 19 -37
1 46 17 22 31 -45 11 -57 13 -61 23 -38 l10 25 7 -25 c5 -14 8 -39 9 -57 2
-54 19 -46 27 13 13 106 -8 184 -74 274 l-25 35 28 -25 27 -25 -7 25 c-6 22
-1 19 40 -20 l46 -45 -6 30 c-7 33 -10 35 48 -36 l29 -34 -6 28 c-9 39 8 27
46 -32 30 -45 30 -46 24 -13 -7 42 6 34 40 -24 14 -24 28 -44 31 -44 12 0 -10
78 -35 123 -43 80 -145 157 -241 183 -25 7 -54 15 -63 19 -10 4 -18 3 -18 -1
0 -9 25 -21 115 -58 36 -15 50 -31 72 -83 4 -9 -2 -9 -26 0 -17 6 -35 23 -42
39 -6 16 -16 31 -21 34 -5 4 -3 -8 6 -24 22 -43 20 -49 -7 -24 -13 12 -26 20
-29 17 -3 -4 -16 10 -28 29 -12 20 -26 36 -32 36 -5 0 2 -14 16 -31 55 -64 10
-59 -54 6 -44 45 -44 47 5 58 15 4 14 5 -6 6 -15 0 -32 -6 -40 -15z m292 -111
c9 -10 24 -31 32 -48 9 -16 16 -24 17 -17 0 20 20 4 20 -16 0 -15 -2 -15 -10
-2 -5 8 -10 11 -10 6 0 -5 -10 0 -23 12 -13 12 -26 20 -28 17 -3 -2 -15 16
-27 41 -20 39 -20 44 -4 35 9 -5 24 -17 33 -28z"/>
<path d="M3493 9299 c-18 -12 -33 -26 -33 -32 0 -6 10 -1 23 10 12 11 31 25
42 31 11 6 16 11 10 12 -5 0 -25 -10 -42 -21z"/>
<path d="M404 9291 c-18 -11 -35 -25 -40 -32 -4 -7 6 -4 22 8 16 11 38 25 49
31 11 6 16 12 10 12 -5 0 -24 -9 -41 -19z"/>
<path d="M1738 7602 c-85 -2 -107 -6 -112 -18 -8 -21 -1 -31 64 -101 112 -120
189 -237 243 -375 32 -78 58 -197 55 -245 -2 -37 3 -35 -116 -33 -52 1 -80 -3
-98 -15 -23 -15 -24 -19 -24 -140 l0 -125 -38 0 c-68 0 -237 38 -338 75 -117
45 -206 101 -333 212 -142 125 -131 168 -131 -503 0 -669 -9 -634 130 -504
159 149 360 246 570 276 156 22 140 36 140 -120 0 -168 -2 -166 142 -166 l98
0 0 -33 c0 -40 -32 -169 -61 -246 -43 -115 -155 -276 -268 -386 -28 -27 -51
-54 -51 -61 0 -35 19 -36 610 -36 319 1 584 4 590 7 23 14 6 45 -58 106 -119
113 -192 218 -250 362 -32 80 -62 203 -62 257 l0 30 94 0 c119 0 126 5 127
103 2 78 5 164 7 186 2 11 14 12 60 7 31 -4 76 -9 99 -12 108 -11 276 -73 384
-141 41 -26 76 -50 79 -53 3 -3 21 -18 40 -34 19 -16 59 -50 88 -77 29 -27 59
-49 67 -49 34 0 36 36 33 586 -2 648 2 621 -94 533 -99 -89 -203 -169 -220
-169 -3 0 -18 -8 -32 -18 -39 -27 -196 -88 -272 -106 -99 -23 -220 -40 -228
-32 -4 4 -9 64 -12 134 -5 122 -6 127 -30 139 -15 8 -56 13 -105 12 l-80 -2 1
62 c2 114 44 245 121 376 39 66 77 114 197 250 42 48 47 58 35 70 -11 11 -98
14 -484 17 -258 2 -518 2 -577 0z m987 -94 c-191 -206 -291 -408 -310 -626
l-8 -82 117 0 117 0 -3 -140 -3 -140 68 0 c167 0 405 80 567 190 30 21 91 70
135 109 l80 70 3 -279 c1 -154 1 -406 0 -559 l-3 -280 -90 81 c-109 97 -152
128 -253 178 -136 68 -256 100 -437 115 l-70 6 3 -151 3 -150 -117 0 -117 0 7
-69 c20 -223 146 -468 325 -633 l73 -68 -591 0 c-325 0 -591 2 -591 5 0 2 32
37 71 77 173 178 263 343 304 561 26 137 35 127 -105 127 l-120 0 0 151 0 151
-47 -6 c-27 -3 -77 -8 -113 -12 -141 -14 -345 -94 -477 -186 -35 -24 -94 -74
-133 -112 l-70 -68 0 562 0 562 71 -63 c186 -169 334 -244 564 -288 58 -12
125 -21 149 -21 41 0 44 2 50 31 3 17 6 80 6 140 l0 109 121 0 122 0 -7 75
c-10 107 -49 232 -106 344 -58 112 -111 185 -204 280 -36 38 -66 72 -66 75 0
3 259 6 576 6 l576 0 -67 -72z"/>
<path d="M1748 7480 c175 -198 269 -399 279 -597 l6 -103 -119 0 -119 0 -2
-126 c-2 -164 0 -162 -126 -146 -266 33 -462 120 -645 287 l-72 67 0 -527 0
-526 84 73 c193 168 426 264 689 281 l78 6 -2 -151 -1 -150 116 1 116 2 0 -64
c0 -36 -11 -108 -25 -163 -44 -173 -125 -316 -262 -463 l-75 -81 546 0 547 0
-70 70 c-166 166 -290 431 -295 629 l-1 66 113 0 112 0 0 152 0 153 63 -6
c319 -27 518 -110 729 -303 l58 -53 2 524 3 524 -83 -72 c-194 -167 -430 -266
-669 -281 l-103 -6 0 141 0 142 -116 0 -116 0 6 78 c22 238 118 447 294 633
l64 69 -537 0 -537 0 70 -80z m906 13 c-21 -27 -44 -52 -50 -58 -14 -12 -64
-86 -93 -138 -11 -20 -30 -53 -41 -73 -70 -122 -127 -419 -87 -452 7 -6 58
-13 113 -14 l99 -3 2 -124 c1 -68 5 -131 8 -139 5 -12 23 -14 118 -8 61 4 124
8 140 8 15 1 27 5 27 9 0 5 8 9 18 9 21 0 148 42 202 66 95 43 125 58 130 65
3 4 22 16 43 28 43 24 44 25 107 81 25 22 48 40 51 40 4 0 7 -207 7 -460 0
-517 7 -477 -78 -400 -43 39 -184 133 -205 136 -5 1 -44 17 -85 37 -41 19
-102 40 -135 47 -33 6 -78 15 -100 20 -22 5 -67 10 -100 11 -33 1 -70 6 -82
10 -15 6 -28 3 -42 -9 -19 -15 -21 -29 -22 -141 -1 -69 -3 -130 -6 -137 -3 -8
-35 -12 -99 -12 -63 0 -100 -5 -111 -14 -27 -22 -12 -163 31 -290 58 -174 117
-277 238 -412 20 -22 34 -44 32 -48 -6 -9 -954 -10 -954 -2 0 3 25 34 56 67
90 100 159 210 204 327 54 138 81 341 48 361 -7 5 -44 9 -83 10 -38 1 -83 2
-100 3 l-30 1 -3 130 c-2 71 -8 138 -14 148 -8 16 -18 18 -91 12 -135 -9 -269
-37 -345 -71 -29 -13 -56 -24 -60 -24 -10 0 -146 -72 -152 -80 -3 -4 -15 -12
-27 -19 -12 -6 -49 -34 -82 -61 -33 -28 -63 -50 -66 -50 -3 0 -5 205 -5 455 0
250 3 455 8 455 4 0 15 -8 23 -17 23 -26 52 -49 127 -100 37 -25 70 -50 73
-55 3 -5 8 -9 10 -8 2 1 17 -4 34 -10 28 -11 48 -19 135 -57 19 -8 47 -17 62
-18 15 -2 44 -8 65 -14 32 -8 94 -18 225 -35 18 -3 33 3 49 20 21 22 23 37 27
144 l4 119 106 0 c58 0 109 4 113 8 13 13 12 162 0 216 -19 83 -67 210 -105
275 -20 35 -36 66 -36 69 0 8 -100 135 -131 167 -16 15 -29 32 -29 37 0 5 208
9 476 9 l476 0 -38 -47z"/>
</g>
</svg>
