<?xml version="1.0" encoding="UTF-8"?>
<!DOCTYPE svg PUBLIC "-//W3C//DTD SVG 1.1//EN" "http://www.w3.org/Graphics/SVG/1.1/DTD/svg11.dtd">
<!-- Creator: CorelDRAW -->
<svg xmlns="http://www.w3.org/2000/svg" xml:space="preserve" width="1.76666in" height="1.76666in" version="1.1" style="shape-rendering:geometricPrecision; text-rendering:geometricPrecision; image-rendering:optimizeQuality; fill-rule:evenodd; clip-rule:evenodd"
viewBox="0 0 1767 1767"
 xmlns:xlink="http://www.w3.org/1999/xlink">
 <defs>
  <style type="text/css">
   <![CDATA[
    .fil0 {fill:#000002}
   ]]>
  </style>
 </defs>
 <g id="Layer_x0020_1">
  <metadata id="CorelCorpID_0Corel-Layer"/>
  <path class="fil0" d="M1457 668c-15,0 -26,-14 -22,-29l37 -132c8,-28 52,-16 44,13l-37 131c-3,10 -12,17 -22,17zm-1152 307c35,-128 147,-226 309,-271l61 -105c-51,-36 -88,-93 -97,-159l-12 0c-124,0 -123,-208 0,-208l12 0c16,-114 114,-202 233,-202 118,0 216,88 232,202l12 0c124,0 124,208 0,208l-12 0c-9,66 -45,123 -97,159l61 105c163,45 275,143 310,270 72,47 118,118 118,199l0 518 120 0c30,0 30,46 0,46l-1489 0c-30,0 -30,-46 0,-46l120 0 0 -518c0,-81 46,-152 119,-198zm353 -255c86,81 219,81 306,0l-57 -98c-61,27 -131,27 -192,0l-57 98zm631 290c-3,-1 -5,-2 -7,-4 -44,-25 -98,-40 -157,-40l-629 0c-123,0 -265,76 -265,207l0 518 1159 0 0 -518c0,-66 -40,-125 -101,-163zm-31 -65c-42,-91 -133,-160 -259,-196 -45,44 -104,71 -166,76l0 96 292 0c48,0 92,8 133,24zm-470 -120c-62,-5 -121,-32 -166,-76 -70,20 -203,74 -258,196 40,-16 85,-24 132,-24l292 0 0 -96zm-212 -430l0 -118c-18,0 -32,1 -44,17 -25,31 -16,101 34,101l10 0zm470 -118l0 118c17,0 31,0 44,-17 24,-31 15,-101 -35,-101l-9 0zm-235 -202c-90,0 -166,63 -185,147 65,-32 202,-77 370,3 -18,-85 -94,-150 -185,-150zm-190 202l1 140c3,135 158,227 282,155 59,-34 96,-94 96,-165l0 -129c-193,-105 -342,-25 -379,-1zm190 1218c-92,0 -167,-74 -167,-166 0,-92 75,-167 167,-167 92,0 166,75 166,167 0,92 -74,166 -166,166zm0 -288c-67,0 -122,55 -122,122 0,67 55,121 122,121 67,0 121,-54 121,-121 0,-67 -54,-122 -121,-122zm889 -445l-449 0c-13,0 -23,-10 -23,-23l0 -321c0,-13 10,-23 23,-23l449 0c13,0 23,10 23,23l0 321c0,13 -10,23 -23,23zm-427 -45l405 0 0 -276 -405 0 0 276zm279 -51c-20,0 -31,-25 -16,-40l52 -49 -52 -48c-21,-21 10,-54 32,-33l68 65c10,9 10,24 0,33l-68 65c-5,5 -10,7 -16,7zm-153 0c-6,0 -11,-2 -16,-7l-69 -65c-9,-9 -9,-24 0,-33l69 -65c22,-21 53,12 32,33l-52 48 52 49c14,15 4,40 -16,40z"/>
 </g>
</svg>
